<svg width="449" height="318" viewBox="0 0 449 318" fill="none" xmlns="http://www.w3.org/2000/svg">
<g clip-path="url(#clip0)">
<path opacity="0.1" d="M149.274 317.821C171.14 317.821 188.866 314.975 188.866 311.463C188.866 307.952 171.14 305.105 149.274 305.105C127.408 305.105 109.682 307.952 109.682 311.463C109.682 314.975 127.408 317.821 149.274 317.821Z" fill="#04A4BC"/>
<path opacity="0.1" d="M364.489 318C391.775 318 413.894 315.153 413.894 311.642C413.894 308.131 391.775 305.284 364.489 305.284C337.204 305.284 315.085 308.131 315.085 311.642C315.085 315.153 337.204 318 364.489 318Z" fill="#04A4BC"/>
<path opacity="0.1" d="M5.62347 137.399H46.8609V193.598H8.64243C8.54084 194.174 8.44333 194.755 8.33768 195.336H46.8609V240.659C46.7918 240.639 46.7309 240.615 46.6659 240.59C45.5769 240.16 44.4961 239.705 43.4153 239.217L42.7246 238.904C41.641 238.392 40.5575 237.851 39.474 237.279C39.0961 237.08 38.7182 236.873 38.3444 236.662C32.3292 233.293 26.8647 229.023 22.1404 224.002C22.0022 223.868 21.8722 223.726 21.7341 223.596C21.0758 222.881 20.4298 222.158 19.804 221.419L19.1133 220.606C18.3738 219.7 17.6587 218.77 16.9639 217.827C16.8623 217.689 16.7648 217.551 16.6591 217.421C13.8334 213.503 11.4871 209.262 9.67041 204.786C9.61353 204.652 9.56477 204.506 9.51195 204.38C8.95394 202.944 8.45958 201.495 8.02888 200.033C7.84197 199.419 7.66319 198.814 7.50879 198.176C7.45191 197.989 7.40315 197.806 7.35845 197.624C5.05055 188.617 4.77832 179.26 4.77832 169.969C4.77832 168.884 4.77832 167.796 4.77832 166.719C4.77832 162.961 4.82302 159.179 4.88803 155.401C4.88803 154.421 4.92866 153.446 4.94897 152.463C5.00586 149.969 5.08712 147.474 5.19277 144.98C5.21715 144.285 5.24965 143.594 5.28622 142.904C5.28622 142.506 5.30654 142.107 5.34717 141.709C5.44469 140.263 5.52595 138.829 5.62347 137.399Z" fill="#04A4BC"/>
<path opacity="0.1" d="M46.8609 74.8259H24.2411C27.9181 69.0715 31.9356 63.5418 36.2722 58.2666C39.6325 54.1389 43.1797 50.1169 46.8609 46.2411V74.8259Z" fill="#04A4BC"/>
<path opacity="0.1" d="M46.8609 76.5647V135.66H5.75351C5.75351 135.489 5.78195 135.315 5.79414 135.144C5.83071 134.677 5.86728 134.21 5.90791 133.747C5.95261 133.202 6.00136 132.654 6.05419 132.121C6.10701 131.589 6.16389 130.939 6.22484 130.35C6.28579 129.761 6.34267 129.164 6.41175 128.575C6.48082 127.986 6.54177 127.397 6.61491 126.812C6.68805 126.227 6.75306 125.633 6.83026 125.048C6.89121 124.561 6.95622 124.077 7.02123 123.59C7.11468 122.903 7.2122 122.213 7.31784 121.53C7.31784 121.429 7.34628 121.323 7.36254 121.225C8.10415 116.229 9.11464 111.276 10.3896 106.389C11.7242 101.262 13.4284 96.2378 15.4889 91.3568C17.6789 86.2508 20.2429 81.3134 23.1603 76.585L46.8609 76.5647Z" fill="#04A4BC"/>
<path opacity="0.1" d="M56.706 137.395V193.598H144.784V137.395H56.706ZM56.706 195.332V243.597C57.2099 243.702 57.7096 243.804 58.2053 243.889C58.8798 244.019 59.5503 244.137 60.2369 244.238C60.367 244.259 60.5011 244.279 60.6433 244.291C60.9114 244.336 61.1877 244.373 61.4559 244.409C62.1345 244.503 62.809 244.58 63.4875 244.641C63.8085 244.673 64.1336 244.702 64.4586 244.726L65.2428 244.787C65.6694 244.819 66.092 244.844 66.5105 244.856C66.7706 244.856 67.0306 244.88 67.2988 244.889C67.5019 244.889 67.7051 244.889 67.9164 244.889C68.1277 244.889 68.4284 244.889 68.6843 244.889C69.0338 244.889 69.3832 244.889 69.7286 244.889H70.1958C70.5453 244.889 70.8947 244.889 71.2401 244.856H71.2645C71.5042 244.856 71.748 244.856 71.9918 244.824C72.0594 244.828 72.1273 244.828 72.1949 244.824C72.3981 244.824 72.6013 244.824 72.7963 244.795H72.9385L74.2997 244.689C74.7466 244.649 75.1976 244.596 75.6527 244.547L76.5791 244.438C80.3481 243.91 84.0751 243.117 87.7326 242.065C95.9484 239.774 103.985 236.568 112.197 234.22C122.814 231.193 134.545 229.706 144.804 233.407V195.332H56.706ZM144.784 74.8259V0.00406526C135.141 -0.100395 125.524 1.02732 116.167 3.35982C93.864 8.96221 73.8527 21.1136 56.706 36.6329V74.8219H61.1268V76.5566H56.706V135.66H144.784V76.5607H79.2771V74.8259H144.784ZM257.916 49.5522C252.398 49.3572 246.913 47.6102 241.951 44.9126C232.464 39.753 224.886 31.7862 216.418 25.0625C198.825 11.0585 177.005 2.60822 154.621 0.511897V74.8259H280.357L280.67 74.4968L257.916 49.5522ZM269.37 47.5208L281.515 60.8463V44.027C277.448 44.5307 273.884 45.7292 269.386 47.5046L269.37 47.5208ZM281.515 255.581V195.332H255.636C255.567 195.076 255.498 194.816 255.417 194.556C255.494 194.816 255.559 195.076 255.632 195.332H154.637V238.904C155.596 239.615 156.543 240.363 157.482 241.122C158.493 241.935 159.493 242.792 160.496 243.633L161.508 244.47C161.992 244.876 162.479 245.283 162.971 245.664C163.946 246.455 164.931 247.235 165.925 248.005C166.416 248.411 166.92 248.776 167.42 249.158C175.354 255.224 183.724 260.697 192.462 265.535C194.42 266.618 196.396 267.676 198.39 268.708C199.719 269.386 201.055 270.061 202.396 270.715C204.411 271.698 206.443 272.646 208.491 273.559C227.371 282.033 247.336 287.848 267.814 290.837C272.362 291.509 276.927 292.037 281.511 292.422V255.577H281.917L281.515 255.581ZM154.637 76.5607V135.66H281.531V76.5607H154.637ZM154.637 137.395V193.598H281.531V137.395H154.637ZM291.38 43.9538V62.7152L306.881 45.7089C301.745 44.8801 296.578 44.2883 291.38 43.9335V43.9538ZM291.38 137.415V193.598H414.8V137.395L291.38 137.415ZM414.349 260.042L414.784 195.332H291.38V293.067C299.33 293.401 307.292 293.306 315.231 292.783H315.369C319.162 292.545 322.936 292.198 326.694 291.743H326.779C346.823 289.411 366.422 284.182 384.964 276.22L414.349 260.042ZM438.598 146.65C438.135 145.557 437.651 144.472 437.16 143.399C436.241 141.368 435.27 139.394 434.271 137.419H424.641V193.598H448.988C448.976 177.688 444.949 161.438 438.61 146.629L438.598 146.65ZM424.641 195.353V251.011C431.5 244.438 437.294 236.918 441.467 228.321C446.485 217.969 448.78 206.761 448.967 195.344L424.641 195.353ZM424.641 121.039V135.664H433.369C430.729 130.629 427.819 125.74 424.653 121.018L424.641 121.039ZM340.939 54.9799C340.297 54.7361 339.655 54.4883 339.009 54.2486C332.195 51.7327 325.233 49.6405 318.161 47.984L294.44 74.0134L293.985 74.4968L294.29 74.83H378.715C366.957 66.7374 354.28 60.0673 340.951 54.9596L340.939 54.9799ZM381.189 76.581H293.111L291.38 78.1654V135.66H306.552H306.577H414.816V107.811C405.025 95.9703 393.724 85.4642 381.201 76.5607L381.189 76.581Z" fill="#04A4BC"/>
<path opacity="0.1" d="M46.8609 106.372V135.66H5.75351C5.75351 135.489 5.78195 135.315 5.79414 135.144C5.83071 134.677 5.86728 134.21 5.90791 133.747C5.95261 133.202 6.00136 132.654 6.05419 132.121C6.10701 131.589 6.16389 130.939 6.22484 130.35C6.28579 129.761 6.34267 129.164 6.41175 128.575C6.48082 127.986 6.54177 127.397 6.61491 126.812C6.68805 126.227 6.75306 125.633 6.83026 125.048C6.89121 124.561 6.95622 124.077 7.02123 123.59C7.11468 122.903 7.2122 122.213 7.31784 121.53C7.31784 121.429 7.34628 121.323 7.36254 121.225C8.10415 116.229 9.11464 111.276 10.3896 106.389L46.8609 106.372Z" fill="#04A4BC"/>
<path opacity="0.1" d="M5.62347 137.399H46.8609V193.598H8.64243C8.54084 194.174 8.44333 194.755 8.33768 195.336H46.8609V240.659C46.7918 240.639 46.7309 240.615 46.6659 240.59C45.5769 240.16 44.4961 239.705 43.4153 239.217L42.7246 238.904C41.641 238.392 40.5575 237.851 39.474 237.279C39.0961 237.08 38.7182 236.873 38.3444 236.662C32.3292 233.293 26.8647 229.023 22.1404 224.002C22.0022 223.868 21.8722 223.726 21.7341 223.596C21.0758 222.881 20.4298 222.158 19.804 221.419L19.1133 220.606C18.3738 219.7 17.6587 218.77 16.9639 217.827C16.8623 217.689 16.7648 217.551 16.6591 217.421C13.8334 213.503 11.4871 209.262 9.67041 204.786C9.61353 204.652 9.56477 204.506 9.51195 204.38C8.95394 202.944 8.45958 201.495 8.02888 200.033C7.84197 199.419 7.66319 198.814 7.50879 198.176C7.45191 197.989 7.40315 197.806 7.35845 197.624C5.05055 188.617 4.77832 179.26 4.77832 169.969C4.77832 168.884 4.77832 167.796 4.77832 166.719C4.77832 162.961 4.82302 159.179 4.88803 155.401C4.88803 154.421 4.92866 153.446 4.94897 152.463C5.00586 149.969 5.08712 147.474 5.19277 144.98C5.21715 144.285 5.24965 143.594 5.28622 142.904C5.28622 142.506 5.30654 142.107 5.34717 141.709C5.44469 140.263 5.52595 138.829 5.62347 137.399Z" fill="#04A4BC"/>
<path opacity="0.1" d="M87.7123 85.0232V135.66H56.706V85.0232H61.1268V67.8788H79.273V85.0232H87.7123Z" fill="#04A4BC"/>
<path opacity="0.1" d="M87.7123 137.395H56.7101V193.593H87.7123V137.395Z" fill="#04A4BC"/>
<path opacity="0.1" d="M56.706 195.336H87.7123V242.057C84.0548 243.108 80.3277 243.899 76.5588 244.425L75.6324 244.539C75.1773 244.592 74.7263 244.637 74.2794 244.681C73.8324 244.726 73.3692 244.758 72.9182 244.787H72.776C72.581 244.787 72.3697 244.811 72.1787 244.815H71.9715C71.7277 244.815 71.4839 244.84 71.2401 244.848C70.8947 244.868 70.5493 244.872 70.1959 244.876C70.0455 244.876 69.9033 244.876 69.753 244.876C69.4035 244.876 69.0582 244.876 68.7087 244.876H67.9408C67.7335 244.876 67.5345 244.876 67.3191 244.876L66.5349 244.848C66.1286 244.848 65.6898 244.803 65.2672 244.775L64.4871 244.718L63.5159 244.629C62.8333 244.568 62.1548 244.49 61.4843 244.397L60.6717 244.283L60.2654 244.226C59.5868 244.121 58.9164 244.007 58.2338 243.877C57.734 243.792 57.2383 243.686 56.7345 243.584L56.706 195.336Z" fill="#04A4BC"/>
<path opacity="0.1" d="M281.531 79.043H255.965V135.656H281.531V79.043Z" fill="#04A4BC"/>
<path opacity="0.1" d="M281.535 137.395V193.598H154.637V169.356H222.229V183.656H255.965V137.395H281.535Z" fill="#04A4BC"/>
<path opacity="0.1" d="M281.937 255.594H281.531V292.462C276.953 292.075 272.389 291.548 267.838 290.882C247.35 287.883 227.377 282.055 208.491 273.567C203.038 271.113 197.696 268.434 192.466 265.531C183.728 260.691 175.357 255.217 167.42 249.154C165.426 247.627 163.459 246.064 161.516 244.466C160.171 243.357 158.835 242.219 157.482 241.114C156.543 240.355 155.596 239.607 154.637 238.892V195.336H255.628C255.559 195.076 255.49 194.816 255.417 194.56C255.494 194.816 255.567 195.076 255.636 195.336H281.531V255.569C281.669 255.573 281.803 255.585 281.937 255.594Z" fill="#04A4BC"/>
<path opacity="0.1" d="M348.208 74.8259H331.549V69.6501H339.017V54.2323C339.665 54.468 340.309 54.7104 340.951 54.9595V69.6501H348.208V74.8259Z" fill="#04A4BC"/>
<path opacity="0.1" d="M388.345 135.66H306.56C306.56 135.66 306.56 135.66 306.589 135.68L306.552 135.66H291.38V79.047H295.679V120.892H315.325V96.1102H331.553V76.5647H348.212V96.1264H364.441V120.909H388.345V135.66Z" fill="#04A4BC"/>
<path opacity="0.1" d="M291.38 137.395V193.598H388.345V137.395H291.38ZM414.666 259.754L414.8 215.268H388.345V195.361H291.38V293.067C299.33 293.401 307.292 293.306 315.231 292.783H315.369C319.162 292.545 322.936 292.198 326.694 291.743H326.779C346.823 289.411 366.422 284.182 384.964 276.22" fill="#04A4BC"/>
<path opacity="0.1" d="M426.364 195.336H448.984C448.785 206.748 446.493 217.957 441.479 228.309C437.306 236.909 431.508 244.429 424.657 250.999V215.247H426.364V195.336Z" fill="#04A4BC"/>
<path opacity="0.1" d="M448.996 193.598H426.364V146.629H438.61C444.949 161.438 448.976 177.688 448.996 193.598Z" fill="#04A4BC"/>
<path opacity="0.1" d="M281.535 94.7817H267.838V112.531H281.535V94.7817Z" fill="#04A4BC"/>
<path opacity="0.1" d="M281.535 131.573H267.838V135.66H281.535V131.573Z" fill="#04A4BC"/>
<path opacity="0.1" d="M281.535 137.395H267.838V149.319H281.535V137.395Z" fill="#04A4BC"/>
<path opacity="0.1" d="M281.535 168.364H267.838V186.114H281.535V168.364Z" fill="#04A4BC"/>
<path opacity="0.1" d="M281.535 205.156H267.838V222.906H281.535V205.156Z" fill="#04A4BC"/>
<path opacity="0.1" d="M281.531 255.569C281.669 255.569 281.803 255.569 281.937 255.594H281.531V259.717H267.838V241.947H281.531V255.569Z" fill="#04A4BC"/>
<path opacity="0.1" d="M281.531 278.73V292.442C276.953 292.055 272.389 291.528 267.838 290.861V278.73H281.531Z" fill="#04A4BC"/>
<path opacity="0.1" d="M213.338 192.293H154.637V193.598H213.338V192.293Z" fill="#04A4BC"/>
<path opacity="0.1" d="M213.338 195.332H154.637V200.329H213.338V195.332Z" fill="#04A4BC"/>
<path opacity="0.1" d="M213.338 216.71H154.637V224.746H213.338V216.71Z" fill="#04A4BC"/>
<path opacity="0.1" d="M213.334 241.126V249.162H167.42C165.426 247.64 163.457 246.078 161.512 244.474C160.167 243.365 158.835 242.227 157.477 241.126H213.334Z" fill="#04A4BC"/>
<path opacity="0.1" d="M213.334 265.539V273.567H208.487C203.04 271.11 197.699 268.43 192.466 265.527L213.334 265.539Z" fill="#04A4BC"/>
<path opacity="0.1" d="M326.791 142.843H315.235V154.397H326.791V142.843Z" fill="#04A4BC"/>
<path opacity="0.1" d="M76.5873 89.0086H65.0316V100.563H76.5873V89.0086Z" fill="#04A4BC"/>
<path opacity="0.1" d="M76.5873 115.847H65.0316V127.401H76.5873V115.847Z" fill="#04A4BC"/>
<path opacity="0.1" d="M76.5873 142.684H65.0316V154.239H76.5873V142.684Z" fill="#04A4BC"/>
<path opacity="0.1" d="M76.5873 169.518H65.0316V181.072H76.5873V169.518Z" fill="#04A4BC"/>
<path opacity="0.1" d="M76.5873 196.356H65.0316V207.91H76.5873V196.356Z" fill="#04A4BC"/>
<path opacity="0.1" d="M76.5873 223.194H65.0316V234.748H76.5873V223.194Z" fill="#04A4BC"/>
<path opacity="0.1" d="M370.905 142.843H359.35V154.397H370.905V142.843Z" fill="#04A4BC"/>
<path opacity="0.1" d="M326.791 171.342H315.235V182.897H326.791V171.342Z" fill="#04A4BC"/>
<path opacity="0.1" d="M370.905 171.342H359.35V182.897H370.905V171.342Z" fill="#04A4BC"/>
<path opacity="0.1" d="M326.791 199.838H315.235V211.392H326.791V199.838Z" fill="#04A4BC"/>
<path opacity="0.1" d="M370.905 199.838H359.35V211.392H370.905V199.838Z" fill="#04A4BC"/>
<path opacity="0.1" d="M326.791 228.337H315.235V239.891H326.791V228.337Z" fill="#04A4BC"/>
<path opacity="0.1" d="M370.905 228.337H359.35V239.891H370.905V228.337Z" fill="#04A4BC"/>
<path opacity="0.1" d="M326.791 256.837H315.235V268.391H326.791V256.837Z" fill="#04A4BC"/>
<path opacity="0.1" d="M370.905 256.837H359.35V268.391H370.905V256.837Z" fill="#04A4BC"/>
<path opacity="0.1" d="M315.235 292.783V285.332H326.787V291.723L315.235 292.783Z" fill="#04A4BC"/>
<path opacity="0.1" d="M7.31375 121.217V127.827H46.8609V121.217H7.31375ZM11.2551 127.413H8.02888V121.624H11.2794L11.2551 127.413ZM15.1923 127.413H11.9417V121.624H15.1923V127.413ZM19.1214 127.413H15.8709V121.624H19.1214V127.413ZM23.0587 127.413H19.8122V121.624H23.0627L23.0587 127.413ZM26.9918 127.413H23.7413V121.624H26.9918V127.413ZM30.9291 127.413H27.6785V121.624H30.9291V127.413ZM34.8663 127.413H31.6158V121.624H34.8663V127.413ZM38.7995 127.413H35.5489V121.624H38.7995V127.413ZM42.7327 127.413H39.4821V121.624H42.7327V127.413ZM46.6658 127.413H43.4153V121.624H46.6658V127.413Z" fill="#04A4BC"/>
<path opacity="0.1" d="M7.31375 140.45V147.06H46.8609V140.45H7.31375ZM11.2551 146.641H8.02888V140.868H11.2794L11.2551 146.641ZM15.1923 146.641H11.9417V140.868H15.1923V146.641ZM19.1214 146.641H15.8709V140.868H19.1214V146.641ZM23.0587 146.641H19.8122V140.868H23.0627L23.0587 146.641ZM26.9918 146.641H23.7413V140.868H26.9918V146.641ZM30.9291 146.641H27.6785V140.868H30.9291V146.641ZM34.8663 146.641H31.6158V140.868H34.8663V146.641ZM38.7995 146.641H35.5489V140.868H38.7995V146.641ZM42.7327 146.641H39.4821V140.868H42.7327V146.641ZM46.6658 146.641H43.4153V140.868H46.6658V146.641Z" fill="#04A4BC"/>
<path opacity="0.1" d="M7.31375 159.691V166.313H46.8609V159.691H7.31375ZM11.2551 165.882H8.02888V160.105H11.2794L11.2551 165.882ZM15.1923 165.882H11.9417V160.105H15.1923V165.882ZM19.1214 165.882H15.8709V160.105H19.1214V165.882ZM23.0587 165.882H19.8122V160.105H23.0627L23.0587 165.882ZM26.9918 165.882H23.7413V160.105H26.9918V165.882ZM30.9291 165.882H27.6785V160.105H30.9291V165.882ZM34.8663 165.882H31.6158V160.105H34.8663V165.882ZM38.7995 165.882H35.5489V160.105H38.7995V165.882ZM42.7327 165.882H39.4821V160.105H42.7327V165.882ZM46.6658 165.882H43.4153V160.105H46.6658V165.882Z" fill="#04A4BC"/>
<path opacity="0.1" d="M7.31375 178.931V185.533H46.8609V178.931H7.31375ZM11.2551 185.123H8.02888V179.342H11.2794L11.2551 185.123ZM15.1923 185.123H11.9417V179.342H15.1923V185.123ZM19.1214 185.123H15.8709V179.342H19.1214V185.123ZM23.0587 185.123H19.8122V179.342H23.0627L23.0587 185.123ZM26.9918 185.123H23.7413V179.342H26.9918V185.123ZM30.9291 185.123H27.6785V179.342H30.9291V185.123ZM34.8663 185.123H31.6158V179.342H34.8663V185.123ZM38.7995 185.123H35.5489V179.342H38.7995V185.123ZM42.7327 185.123H39.4821V179.342H42.7327V185.123ZM46.6658 185.123H43.4153V179.342H46.6658V185.123Z" fill="#04A4BC"/>
<path opacity="0.1" d="M7.48444 198.168C7.6429 198.79 7.82168 199.411 8.00859 200.025V198.582H11.2591V204.36H9.5201C9.57292 204.494 9.62574 204.64 9.67856 204.766H46.8609V198.168H7.48444ZM15.2045 204.36H11.954V198.582H15.2045V204.36ZM19.1336 204.36H15.8831V198.582H19.1336V204.36ZM23.0709 204.36H19.8122V198.582H23.0627L23.0709 204.36ZM27.0041 204.36H23.7535V198.582H27.0041V204.36ZM30.9413 204.36H27.6907V198.582H30.9413V204.36ZM34.8785 204.36H31.628V198.582H34.8785V204.36ZM38.8117 204.36H35.5612V198.582H38.8117V204.36ZM42.7449 204.36H39.4943V198.582H42.7449V204.36ZM46.6781 204.36H43.4275V198.582H46.6781V204.36Z" fill="#04A4BC"/>
<path opacity="0.1" d="M16.6672 217.409C16.7688 217.539 16.8663 217.685 16.972 217.815H19.1214V220.59C19.353 220.866 19.5806 221.142 19.8162 221.402V217.799H23.0668V223.596H21.7503C21.8803 223.73 22.0063 223.872 22.1566 224.002H46.8731V217.409H16.6672ZM26.9918 223.596H23.7413V217.823H26.9918V223.596ZM30.9291 223.596H27.6785V217.823H30.9291V223.596ZM34.8663 223.596H31.6158V217.823H34.8663V223.596ZM38.7995 223.596H35.5489V217.823H38.7995V223.596ZM42.7327 223.596H39.4821V217.823H42.7327V223.596ZM46.6658 223.596H43.4153V217.823H46.6658V223.596Z" fill="#04A4BC"/>
<path opacity="0.1" d="M38.3607 236.645C38.7304 236.857 39.1083 237.052 39.4903 237.263V237.06H42.7408V238.888L43.4316 239.209V237.06H46.6821V240.574C46.7445 240.605 46.8098 240.629 46.8772 240.647V236.645H38.3607Z" fill="#04A4BC"/>
<path opacity="0.1" d="M306.56 135.66H306.585H306.56ZM281.531 255.565H281.937H281.531ZM255.417 194.556C255.494 194.816 255.559 195.076 255.632 195.332C255.567 195.076 255.498 194.816 255.417 194.556ZM306.56 135.648H306.585H306.56ZM61.1431 74.8137V76.5485H79.2934V74.8137H61.1431ZM281.531 255.565H281.937H281.531ZM255.417 194.556C255.494 194.816 255.559 195.076 255.632 195.332C255.567 195.076 255.498 194.816 255.417 194.556ZM306.56 135.648H306.585H306.56ZM281.531 255.553H281.937H281.531ZM255.417 194.556C255.494 194.816 255.559 195.076 255.632 195.332C255.567 195.076 255.498 194.816 255.417 194.556Z" fill="#04A4BC"/>
<path d="M187.557 154.247C187.557 154.247 185.956 154.023 185.956 151.691C185.956 149.359 184.811 145.004 184.811 145.004C184.811 144.984 183.819 137.419 182.45 136.217C181.081 135.014 179.321 127.953 179.321 127.953C179.321 127.953 179.021 124.122 178.407 123.297C177.793 122.473 176.965 120.454 175.742 117.573C174.519 114.693 169.419 112.698 169.419 112.698C169.419 112.698 160.2 107.352 157.587 105.609C157.35 105.465 157.128 105.298 156.925 105.109C156.47 104.512 154.487 104.5 154.487 104.5C154.28 103.191 154.081 101.688 154.016 100.327C154.016 100.181 154.016 100.035 153.995 99.8884C156.909 98.1666 159.103 95.4518 160.175 92.2425C160.224 92.0881 160.265 91.9256 160.31 91.7712C160.484 91.7137 160.645 91.6205 160.781 91.4973C160.918 91.3742 161.027 91.224 161.102 91.0562C161.338 90.5321 161.342 89.9187 161.634 89.4312C161.975 88.8543 162.626 88.5455 163.138 88.1108C164.43 87.0139 164.763 85.1654 164.702 83.4834C164.661 82.1224 164.442 80.7493 164.527 79.3964L164.552 79.0551C164.576 78.852 164.604 78.6489 164.641 78.4539C164.84 77.4463 165.275 76.4957 165.519 75.4963C165.762 74.4969 165.787 73.3715 165.218 72.5102C164.385 71.2467 162.65 70.9948 161.126 70.8648C159.399 70.7186 157.855 70.9095 156.75 69.4754C156.233 68.7259 155.651 68.023 155.011 67.375C154.784 67.1638 152.573 65.815 152.573 65.7256C150.416 64.7265 147.971 64.539 145.686 65.1974C144.54 65.5306 143.459 66.075 142.297 66.3472C139.79 66.9403 136.905 66.2984 134.776 67.7325C133.59 68.5451 132.879 69.837 132.212 71.0964C131.671 72.1337 131.121 73.1697 130.563 74.2043C129.665 75.9066 128.751 77.6373 128.373 79.5223C128.293 79.9325 128.244 80.3481 128.227 80.7655V80.7858C128.227 80.9362 128.227 81.0865 128.227 81.2368V81.4277C128.227 81.5699 128.226 81.7081 128.251 81.834C128.275 81.9599 128.271 82.0006 128.283 82.0859C128.296 82.1712 128.316 82.3621 128.34 82.4921C128.365 82.6221 128.413 82.8497 128.462 83.0284C128.482 83.1056 128.511 83.1787 128.535 83.2519C128.576 83.39 128.625 83.5241 128.678 83.6581C128.706 83.7272 128.734 83.8003 128.767 83.8694C128.828 84.0116 128.901 84.1497 128.974 84.2757C129.007 84.3325 129.031 84.3853 129.064 84.4382C129.177 84.6271 129.302 84.8089 129.437 84.9826C130.307 86.0673 131.587 86.7579 132.533 87.7736C132.533 87.8142 132.533 87.8548 132.533 87.8914C132.533 88.0052 132.533 88.1149 132.533 88.2286C132.584 90.4937 133.187 92.7123 134.29 94.6913C135.393 96.6703 136.963 98.3498 138.864 99.5837C138.864 99.7381 138.884 99.8965 138.892 100.051C138.972 101.257 138.957 102.467 138.848 103.671C138.682 103.476 138.475 103.321 138.242 103.217C138.008 103.113 137.754 103.062 137.499 103.069C137.324 103.061 137.149 103.076 136.979 103.114L136.942 103.086V103.122C136.048 103.342 134.947 104.272 133.895 106.917C133.895 106.917 130.693 110.524 128.255 110.374C125.817 110.224 119.645 114.128 119.645 114.128C119.645 114.128 113.623 118.036 112.331 122.018C111.609 124.275 110.743 126.485 109.739 128.632L102.295 143.968L100.922 156.136C100.922 156.136 101.682 161.547 101.531 162.372C101.381 163.197 104.656 170.635 104.656 170.635C104.656 170.635 115.476 189.645 119.897 190.62L120.214 190.396C120.403 190.495 120.604 190.57 120.811 190.62L121.721 189.978C121.776 190.693 121.753 191.412 121.652 192.123C121.043 194 121.88 206.249 122.944 208.65C124.009 211.051 123.631 242.532 123.631 242.532L123.481 245.311C123.481 245.311 123.481 245.4 123.517 245.555L123.481 246.213L123.59 246.27C123.704 247.151 123.667 248.046 123.481 248.915C123.099 250.133 122.944 253.579 122.944 253.579C122.944 253.579 119.901 273.031 121.343 276.939C122.786 280.847 124.013 285.129 124.013 285.129C124.013 285.129 125.537 290.004 124.086 290.837C122.636 291.67 118.511 293.068 119.361 295.099C120.133 296.976 123.062 302.005 123.497 302.741L123.46 303.127L122.863 309.598C122.96 310.453 123.192 311.287 123.55 312.069C124.204 313.478 125.476 314.941 127.893 314.782C128.3 314.754 128.771 314.705 129.226 314.644C133.651 314.051 139.1 312.077 139.1 312.077C138.817 311.897 138.557 311.683 138.328 311.439C138.11 311.228 137.938 310.975 137.821 310.696C137.704 310.417 137.646 310.117 137.649 309.814C137.714 308.636 135.508 303.021 134.959 301.64C134.874 301.441 134.829 301.327 134.829 301.327C134.829 301.327 139.859 296.07 139.022 291.41C139.022 291.41 133.456 288.16 135.288 286.376C137.121 284.593 140.396 279.47 140.396 279.47C140.396 279.47 140.546 260.314 140.396 257.454C140.239 255.469 140.333 253.472 140.676 251.511C140.737 251.214 140.81 250.926 140.887 250.641C143.422 251.02 145.98 251.214 148.543 251.222C149.477 251.222 150.428 251.222 151.387 251.165C151.387 251.436 151.399 251.729 151.423 252.043C151.635 256.788 152.029 265.108 152.35 268.2C152.805 272.632 155.32 284.577 155.32 284.577C155.32 284.577 150.521 287.656 156.157 295.245C156.157 295.245 156.157 297.996 155.783 298.394C155.384 299.695 155.062 301.019 154.82 302.359C154.584 303.789 154.487 305.235 154.869 305.987C155.783 307.782 161.268 307.636 161.268 307.636L161.403 307.612C162.438 307.505 163.485 307.604 164.481 307.905C165.478 308.206 166.405 308.701 167.209 309.363C169.293 311.037 177.204 310.301 181.487 309.769C183.165 309.558 184.286 309.363 184.286 309.363C184.341 309.173 184.36 308.975 184.343 308.778C184.299 307.726 183.474 305.418 177.883 303.358C177.883 303.358 172.625 299.824 172.698 296.744H172.589H171.979C172.422 296.72 172.706 296.744 172.706 296.744C172.706 296.744 170.646 289.228 171.487 288.619C172.328 288.01 169.809 279.681 169.809 279.681C169.809 279.681 168.367 265.706 168.29 264.726C168.293 263.886 168.42 263.051 168.668 262.248L168.29 254.586C168.29 254.586 168.217 252.039 168.29 251.21C168.277 250.491 168.219 249.773 168.115 249.061C168.078 248.776 168.042 248.48 168.001 248.187C169.972 247.688 171.252 247.225 171.252 247.225L171.024 220.553C172.698 217.303 173.007 210.173 172.999 205.115C172.999 201.865 172.853 199.46 172.853 199.46L175.14 195.726C175.14 195.726 175.668 191.257 174.831 190.278C174.462 189.836 174.628 189.376 174.933 188.999C175.091 188.873 175.258 188.759 175.433 188.657C175.433 188.657 175.408 188.621 175.38 188.568C175.54 188.435 175.709 188.314 175.888 188.206C175.888 188.206 175.075 186.947 175.803 186.415C176.485 186.878 177.095 187.227 177.558 187.512C177.525 187.808 177.493 187.979 177.493 187.979L177.688 187.573C178.135 187.825 178.407 187.979 178.407 187.979C178.407 187.979 181.991 180.841 181.914 179.789C181.836 178.736 184.352 174.304 184.352 174.304C184.352 174.304 184.656 171.976 186.03 171.001C187.403 170.026 187.094 162.961 187.094 162.961C187.094 162.961 187.476 159.28 188.39 157.777C189.305 156.274 187.557 154.247 187.557 154.247ZM118.987 151.114L119.056 152.817C118.65 152.163 118.357 151.691 118.357 151.691L118.987 151.114Z" fill="url(#paint0_linear)"/>
<path d="M178.602 184.895L177.724 188.633C177.724 188.633 170.695 185.046 169.427 180.487C168.16 175.929 171.548 174.198 171.548 174.198L178.098 176.973L178.602 184.895Z" fill="white"/>
<path opacity="0.1" d="M178.602 184.895L177.724 188.633C177.724 188.633 170.695 185.046 169.427 180.487C168.16 175.929 171.548 174.198 171.548 174.198L178.098 176.973L178.602 184.895Z" fill="black"/>
<path d="M139.152 312.101C139.152 312.101 132.651 314.49 128.182 314.79C125.809 314.949 124.561 313.495 123.92 312.093C123.569 311.314 123.343 310.484 123.249 309.635L123.83 303.196L124.139 299.767L133.635 297.301L134.98 301.412L135.106 301.725C135.646 303.098 137.812 308.684 137.747 309.85C137.744 310.149 137.802 310.445 137.916 310.721C138.031 310.996 138.2 311.246 138.413 311.455C138.631 311.701 138.879 311.918 139.152 312.101Z" fill="white"/>
<path d="M183.559 308.827C183.575 309.022 183.556 309.219 183.502 309.407C183.502 309.407 169.598 311.727 166.754 309.407C165.952 308.73 165.017 308.227 164.009 307.932C163.002 307.637 161.944 307.555 160.903 307.693C160.903 307.693 155.523 307.839 154.625 306.068C154.251 305.325 154.349 303.882 154.58 302.46C154.817 301.128 155.131 299.811 155.523 298.515L155.738 298.345L157.018 297.317L172.003 296.874H172.117C172.044 299.937 177.204 303.452 177.204 303.452C182.686 305.483 183.494 307.778 183.559 308.827Z" fill="white"/>
<path opacity="0.1" d="M183.559 308.827C183.573 309.022 183.553 309.219 183.498 309.407C183.498 309.407 169.598 311.727 166.754 309.407C165.952 308.73 165.018 308.228 164.011 307.933C163.005 307.638 161.947 307.556 160.907 307.693C160.907 307.693 155.523 307.839 154.629 306.068C154.255 305.32 154.349 303.882 154.58 302.46C156.653 302.668 159.924 303.184 161.208 304.414C163.15 306.287 166.441 308.156 168.46 308.302C170.041 308.404 179.496 308.705 183.559 308.827Z" fill="black"/>
<path opacity="0.1" d="M139.152 312.101C139.152 312.101 132.651 314.49 128.182 314.79C125.809 314.949 124.562 313.495 123.924 312.089C125.577 312.645 127.873 313.23 129.08 312.694C130.51 312.06 135.581 311.65 138.425 311.475C138.642 311.712 138.886 311.922 139.152 312.101Z" fill="black"/>
<path d="M148.798 119.592C143.435 117.508 136.536 110.622 138.259 107.404C138.641 106.592 138.869 105.716 138.929 104.82C139.04 103.605 139.056 102.382 138.978 101.164C138.857 99.1689 138.617 97.1828 138.259 95.2164C138.259 95.2164 155.003 95.5942 154.028 98.0602C153.743 98.7834 153.699 100.039 153.776 101.444C153.853 102.85 154.056 104.439 154.268 105.783C154.56 107.628 154.853 109.033 154.853 109.033C154.853 109.033 153.829 110.468 153.227 110.545C152.626 110.622 156.494 122.562 148.798 119.592Z" fill="#CF6F80"/>
<path opacity="0.1" d="M135.093 301.725L134.967 301.863C129.961 295.81 123.907 303.354 123.907 303.354L123.818 303.196L124.127 299.767L133.622 297.301L134.967 301.412L135.093 301.725Z" fill="black"/>
<path opacity="0.1" d="M172.121 297.301C172.121 297.301 168.464 297.224 166.514 298.946C164.564 300.669 155.137 299.32 155.543 298.946C155.664 298.761 155.736 298.549 155.755 298.329L157.035 297.301L172.02 296.858C172.077 297.13 172.121 297.301 172.121 297.301Z" fill="black"/>
<path d="M141.322 249.764C141.05 250.437 140.843 251.135 140.705 251.848C140.366 253.8 140.272 255.787 140.424 257.763C140.575 260.607 140.424 279.665 140.424 279.665C140.424 279.665 137.21 284.747 135.418 286.539C133.627 288.33 139.075 291.548 139.075 291.548C139.888 296.179 134.963 301.412 134.963 301.412C129.957 295.359 123.903 302.907 123.903 302.907C123.903 302.907 120.612 297.22 119.791 295.188C118.971 293.157 123.005 291.751 124.423 290.926C125.841 290.102 124.354 285.239 124.354 285.239C124.354 285.239 123.156 280.977 121.734 277.089C120.311 273.201 123.302 253.847 123.302 253.847C123.302 253.847 123.456 250.41 123.826 249.211C124.013 248.346 124.05 247.456 123.936 246.579C123.911 246.282 123.883 246.034 123.863 245.868C123.842 245.701 123.826 245.624 123.826 245.624L123.883 245.526L125.915 241.74C125.915 241.74 142.297 247.379 141.322 249.764Z" fill="#04A4BC"/>
<path d="M172.121 296.854C172.121 296.854 168.464 296.777 166.514 298.479C164.564 300.181 155.137 298.853 155.543 298.479C155.95 298.105 155.917 295.339 155.917 295.339C150.387 287.79 155.105 284.727 155.105 284.727C155.105 284.727 152.634 272.844 152.187 268.436C151.874 265.356 151.488 257.081 151.281 252.356C151.192 250.324 151.139 248.927 151.139 248.927L155.657 248.017L156.238 247.899L167.136 245.713C167.136 245.713 167.436 247.745 167.64 249.406C167.741 250.116 167.798 250.831 167.81 251.547C167.737 252.36 167.81 254.903 167.81 254.903L168.18 262.529C167.938 263.328 167.814 264.159 167.81 264.995C167.883 265.966 169.301 279.868 169.301 279.868C169.301 279.868 171.768 288.164 170.927 288.761C170.086 289.358 172.121 296.854 172.121 296.854Z" fill="#04A4BC"/>
<path opacity="0.1" d="M154.028 98.0602C153.743 98.7834 153.699 100.039 153.776 101.444C151.533 102.795 148.955 103.485 146.337 103.436C143.719 103.388 141.169 102.601 138.978 101.168C138.857 99.1716 138.617 97.1841 138.259 95.2164C138.259 95.2164 155.003 95.5861 154.028 98.0602Z" fill="black"/>
<path d="M160.501 89.0818C160.504 90.5457 160.273 92.0009 159.818 93.3922C158.8 96.5098 156.712 99.1671 153.924 100.895C151.136 102.622 147.827 103.309 144.582 102.833C141.337 102.357 138.365 100.749 136.19 98.2936C134.016 95.8382 132.78 92.6934 132.7 89.4149C132.7 89.3011 132.7 89.1955 132.7 89.0818C132.669 87.2363 133.005 85.4031 133.689 83.689C134.374 81.9749 135.393 80.4142 136.687 79.098C137.981 77.7818 139.524 76.7364 141.227 76.0228C142.929 75.3092 144.756 74.9417 146.602 74.9417C148.448 74.9417 150.276 75.3092 151.978 76.0228C153.681 76.7364 155.224 77.7818 156.518 79.098C157.812 80.4142 158.831 81.9749 159.515 83.689C160.2 85.4031 160.536 87.2363 160.505 89.0818H160.501Z" fill="#CF6F80"/>
<path opacity="0.1" d="M148.798 119.592C143.435 117.508 136.536 110.622 138.259 107.404C138.641 106.592 138.869 105.716 138.929 104.82L146.271 110.854L150.814 114.579L154.268 105.787C154.56 107.632 154.853 109.038 154.853 109.038C154.853 109.038 153.829 110.472 153.227 110.549C152.626 110.626 156.494 122.562 148.798 119.592Z" fill="black"/>
<path d="M167.786 146.255L161.655 249.244L153.658 249.768L132.952 190.051L136.349 119.154L137.064 104.175L146.271 111.735L150.818 115.461L154.373 106.413L160.984 112.174L167.786 146.255Z" fill="#04A4BC"/>
<path opacity="0.1" d="M141.322 249.764C141.05 250.437 140.843 251.135 140.705 251.848C134.886 250.95 129.235 249.184 123.94 246.611L123.83 246.554L123.867 245.9L123.887 245.559L125.919 241.772C125.919 241.772 142.297 247.379 141.322 249.764Z" fill="black"/>
<path opacity="0.1" d="M155.751 251.864C154.263 252.117 152.763 252.288 151.257 252.376C151.167 250.345 151.115 248.947 151.115 248.947L155.633 248.037L155.751 251.864Z" fill="black"/>
<path opacity="0.1" d="M167.615 249.427C164.726 250.178 160.265 251.023 156.271 250.495L156.214 247.919L167.111 245.734C167.111 245.734 167.412 247.745 167.615 249.427Z" fill="black"/>
<path opacity="0.1" d="M156.198 250.966C139.538 253.81 124.281 245.656 124.281 245.656L124.427 242.894C124.427 242.894 124.805 211.575 123.757 209.174C122.709 206.773 121.892 194.597 122.485 192.728C123.078 190.859 120.319 162.835 120.319 162.835L119.873 151.46L103.514 144.834L110.828 129.59C111.816 127.453 112.665 125.255 113.371 123.009C114.643 119.052 120.547 115.164 120.547 115.164C120.547 115.164 126.601 111.28 128.994 111.426C131.388 111.573 134.524 107.989 134.524 107.989C136.84 102.086 138.937 104.76 138.937 104.76C138.937 105.04 138.937 104.76 138.823 105.633C138.011 112.113 151.964 132.589 152.163 132.95L153.491 165.313L154.836 206.269L156.198 250.966Z" fill="black"/>
<path d="M155.751 250.966C139.091 253.81 123.83 245.656 123.83 245.656L123.98 242.894C123.98 242.894 124.358 211.575 123.306 209.174C122.254 206.773 121.441 194.597 122.038 192.728C122.636 190.859 119.873 162.835 119.873 162.835L119.422 151.46L103.055 144.809L110.369 129.566C111.354 127.428 112.204 125.23 112.912 122.985C114.18 119.028 120.088 115.14 120.088 115.14C120.088 115.14 126.142 111.256 128.531 111.402C130.92 111.548 134.061 107.965 134.061 107.965C136.381 102.062 138.937 104.735 138.937 104.735C138.937 105.015 138.693 105.141 138.823 105.609C140.611 111.894 151.517 132.564 151.716 132.926L153.061 165.289L154.406 206.245L155.751 250.966Z" fill="white"/>
<path opacity="0.1" d="M151.261 133.848C149.469 133.101 139.977 122.265 139.977 122.265V119.799C139.632 118.987 137.58 119.483 135.914 120.051L136.629 105.072L137.442 105.747C139.222 112.028 151.054 133.487 151.261 133.848Z" fill="black"/>
<path d="M151.712 132.95C149.916 132.203 140.424 121.368 140.424 121.368V118.902C140.079 118.089 138.027 118.585 136.361 119.154L137.08 104.175L137.893 104.849C139.677 111.13 151.513 132.593 151.712 132.95Z" fill="white"/>
<path opacity="0.1" d="M124.281 186.988C124.505 186.988 135.865 185.793 135.865 185.793C135.865 185.793 142.744 199.318 142.293 202.609C141.842 205.899 141.026 208.812 138.259 208.296C135.492 207.78 123.367 208.702 123.367 208.702L124.281 186.988Z" fill="black"/>
<path d="M123.83 186.09C124.054 186.09 135.414 184.895 135.414 184.895C135.414 184.895 142.289 198.424 141.842 201.711C141.395 204.997 140.57 207.914 137.808 207.398C135.045 206.882 122.916 207.805 122.916 207.805L123.83 186.09Z" fill="white"/>
<path d="M132.391 179.74C132.391 179.74 142.817 185.342 143.041 187.053C143.264 188.763 137.734 186.305 136.54 186.009C135.754 185.819 134.953 185.694 134.147 185.635L126.179 185.85L132.391 179.74Z" fill="#CF6F80"/>
<path opacity="0.1" d="M148.352 134.547C148.957 134.547 149.449 134.056 149.449 133.45C149.449 132.844 148.957 132.353 148.352 132.353C147.746 132.353 147.254 132.844 147.254 133.45C147.254 134.056 147.746 134.547 148.352 134.547Z" fill="black"/>
<path d="M148.352 134.1C148.957 134.1 149.449 133.609 149.449 133.003C149.449 132.397 148.957 131.906 148.352 131.906C147.746 131.906 147.254 132.397 147.254 133.003C147.254 133.609 147.746 134.1 148.352 134.1Z" fill="#3F3D56"/>
<path opacity="0.1" d="M150.371 182.031C150.977 182.031 151.468 181.54 151.468 180.934C151.468 180.328 150.977 179.837 150.371 179.837C149.765 179.837 149.274 180.328 149.274 180.934C149.274 181.54 149.765 182.031 150.371 182.031Z" fill="black"/>
<path d="M150.371 181.58C150.977 181.58 151.468 181.089 151.468 180.483C151.468 179.877 150.977 179.386 150.371 179.386C149.765 179.386 149.274 179.877 149.274 180.483C149.274 181.089 149.765 181.58 150.371 181.58Z" fill="#3F3D56"/>
<path opacity="0.1" d="M149.445 158.289C150.05 158.289 150.542 157.798 150.542 157.192C150.542 156.586 150.05 156.095 149.445 156.095C148.839 156.095 148.347 156.586 148.347 157.192C148.347 157.798 148.839 158.289 149.445 158.289Z" fill="black"/>
<path d="M149.445 157.842C150.05 157.842 150.542 157.351 150.542 156.745C150.542 156.139 150.05 155.648 149.445 155.648C148.839 155.648 148.347 156.139 148.347 156.745C148.347 157.351 148.839 157.842 149.445 157.842Z" fill="#3F3D56"/>
<path d="M174.734 185.407C174.734 185.407 175.482 186.529 174.734 187.053C173.986 187.577 174.807 188.844 174.807 188.844C174.807 188.844 172.942 189.937 173.763 190.92C174.584 191.903 174.063 196.344 174.063 196.344L171.821 200.057C171.821 200.057 171.955 202.45 171.963 205.684C171.963 210.73 171.666 217.823 170.025 221.057L170.252 247.59C170.252 247.59 162.398 250.458 155.824 249.585L154.849 207.008C154.849 207.008 156.271 182.864 156.795 178.233C157.102 175.828 157.227 173.404 157.169 170.981C157.169 170.981 156.945 163.733 156.194 160.369C156.194 160.369 155.381 145.796 155.3 141.762C155.263 139.832 155.365 134.202 155.478 128.847C155.604 122.993 155.747 117.472 155.747 117.472L154.263 105.739C154.263 105.739 155.747 105.588 156.194 106.186C156.394 106.373 156.611 106.54 156.844 106.685C159.403 108.416 168.448 113.738 168.448 113.738C168.448 113.738 173.454 115.729 174.653 118.581C175.851 121.433 176.684 123.456 177.265 124.268C177.846 125.081 178.163 128.9 178.163 128.9C178.163 128.9 179.886 135.928 181.231 137.119C182.576 138.309 183.559 145.882 183.559 145.882L171.674 155.226C171.674 155.226 170.63 170.77 170.407 171.371C170.183 171.972 174.734 185.407 174.734 185.407Z" fill="white"/>
<path d="M175.185 185.407C175.185 185.407 175.928 186.529 175.185 187.053C174.441 187.577 175.254 188.844 175.254 188.844C175.254 188.844 173.401 189.949 174.214 190.932C175.026 191.916 174.514 196.356 174.514 196.356L172.272 200.069C172.272 200.069 172.406 202.462 172.418 205.696C172.418 210.742 172.121 217.835 170.48 221.069L170.703 247.602C170.703 247.602 162.837 250.471 156.271 249.597L155.3 207.021C155.3 207.021 156.722 182.876 157.246 178.245C157.553 175.84 157.677 173.416 157.616 170.993C157.616 170.993 157.392 163.745 156.645 160.381C156.645 160.381 155.832 145.809 155.747 141.774C155.71 139.845 155.816 134.214 155.925 128.859C156.051 123.005 156.194 117.484 156.194 117.484L154.235 105.592C154.235 105.592 156.194 105.592 156.645 106.198C156.843 106.387 157.061 106.554 157.295 106.697C159.854 108.428 168.903 113.75 168.903 113.75C168.903 113.75 173.905 115.741 175.104 118.593C176.302 121.445 177.135 123.468 177.72 124.281C178.305 125.093 178.614 128.912 178.614 128.912C178.614 128.912 180.337 135.94 181.682 137.131C183.027 138.321 183.998 145.878 183.998 145.878L172.113 155.222C172.113 155.222 171.069 170.765 170.841 171.367C170.614 171.968 175.185 185.407 175.185 185.407Z" fill="white"/>
<path opacity="0.1" d="M160.952 120.933L162.024 124.061L156.376 129.749C156.502 123.899 156.645 118.373 156.645 118.373L154.686 106.482C154.686 106.482 156.645 106.482 157.096 107.087C157.293 107.276 157.511 107.442 157.746 107.583L162.548 121.437L160.952 120.933Z" fill="black"/>
<path d="M160.501 120.035L161.577 123.163L155.929 128.851C156.055 122.997 156.198 117.476 156.198 117.476L154.235 105.584C154.235 105.584 156.198 105.584 156.645 106.19C156.844 106.378 157.062 106.545 157.295 106.689L162.101 120.539L160.501 120.035Z" fill="white"/>
<path opacity="0.1" d="M160.501 89.0818C160.504 90.5457 160.273 92.0009 159.818 93.3922C159.741 93.4042 159.663 93.4007 159.587 93.3818C159.512 93.363 159.441 93.3292 159.379 93.2825C159.273 89.6262 157.473 86.1932 155.259 83.2722C154.637 82.3902 153.884 81.6092 153.024 80.9565C152.155 80.3041 151.075 79.9985 149.993 80.0992C148.774 80.2658 147.697 81.0946 146.466 81.2002C144.841 81.3343 143.386 80.2089 141.773 80.1521C141.117 80.1583 140.471 80.3043 139.876 80.5803C139.281 80.8563 138.752 81.256 138.324 81.7527C137.476 82.7551 136.847 83.9228 136.475 85.1816C135.836 87.0904 135.488 89.0845 135.443 91.0968C135.422 92.2344 135.313 93.6604 134.256 94.0748C134.336 93.2382 134.241 92.3942 133.977 91.5963C133.713 90.7983 133.287 90.0638 132.724 89.4393L132.7 89.4149C132.7 89.3012 132.7 89.1955 132.7 89.0818C132.669 87.2363 133.005 85.4031 133.689 83.689C134.374 81.9749 135.393 80.4142 136.687 79.098C137.981 77.7818 139.524 76.7364 141.227 76.0228C142.929 75.3092 144.756 74.9417 146.602 74.9417C148.448 74.9417 150.276 75.3092 151.978 76.0228C153.681 76.7364 155.224 77.7818 156.518 79.098C157.812 80.4142 158.831 81.9749 159.515 83.689C160.2 85.4031 160.536 87.2363 160.505 89.0818H160.501Z" fill="black"/>
<path d="M152.358 67.0094C150.246 66.0163 147.845 65.8285 145.605 66.4812C144.479 66.8144 143.419 67.3547 142.277 67.6269C139.839 68.216 136.995 67.5781 134.902 69.0041C133.74 69.8167 133.041 71.1005 132.391 72.3477L130.766 75.4434C129.88 77.1376 128.986 78.8601 128.617 80.7249C128.247 82.5896 128.47 84.6778 129.653 86.177C130.514 87.2698 131.786 87.9564 132.72 88.9843C133.28 89.6095 133.705 90.3435 133.968 91.1405C134.231 91.9375 134.326 92.7801 134.248 93.6157C135.309 93.2094 135.41 91.7794 135.435 90.6418C135.48 88.6295 135.828 86.6354 136.467 84.7266C136.838 83.4674 137.467 82.2996 138.315 81.2977C138.744 80.8014 139.273 80.402 139.868 80.126C140.463 79.85 141.109 79.7038 141.765 79.697C143.39 79.7539 144.849 80.8752 146.458 80.7411C147.677 80.6396 148.758 79.8067 149.985 79.6442C151.067 79.5419 152.148 79.8476 153.016 80.5014C153.875 81.1532 154.628 81.9344 155.247 82.8172C157.465 85.7382 159.265 89.163 159.371 92.8275C159.83 93.1647 160.492 92.726 160.72 92.2059C160.947 91.6859 160.956 91.0765 161.244 90.5809C161.577 90.008 162.215 89.7033 162.715 89.2727C163.983 88.1798 164.3 86.3395 164.251 84.6697C164.202 83 163.877 81.3058 164.194 79.6645C164.385 78.657 164.816 77.7145 165.051 76.7191C165.287 75.7238 165.315 74.6065 164.759 73.7493C163.946 72.4899 162.236 72.2421 160.744 72.1243C159.05 71.978 157.534 72.1649 156.454 70.7389C155.946 69.9948 155.375 69.2961 154.747 68.6507C154.532 68.4394 152.358 67.0988 152.358 67.0094Z" fill="#512E4E"/>
<path opacity="0.1" d="M108.195 152.683L103.949 144.834L102.604 156.944C102.604 156.944 103.352 162.323 103.201 163.148C103.051 163.973 106.265 171.367 106.265 171.367C106.265 171.367 116.882 190.274 121.217 191.249L135.865 180.784L131.981 175.852C131.981 175.852 130.636 175.328 130.299 175.852C130.299 175.852 123.087 163.445 122.339 162.547C121.591 161.649 121.738 159.857 121.738 159.857C121.738 159.857 120.616 158.663 120.99 157.542C121.364 156.42 118.824 152.532 118.824 152.532L121.14 150.367L108.195 152.683Z" fill="black"/>
<path d="M104.172 143.94L103.051 144.834L101.706 156.944C101.706 156.944 102.454 162.323 102.303 163.148C102.153 163.973 105.371 171.367 105.371 171.367C105.371 171.367 115.984 190.274 120.32 191.249L134.971 180.784L131.083 175.852C131.083 175.852 129.738 175.328 129.401 175.852C129.401 175.852 122.189 163.445 121.441 162.547C120.693 161.649 120.844 159.857 120.844 159.857C120.844 159.857 119.722 158.663 120.096 157.542C120.47 156.42 117.926 152.532 117.926 152.532L120.242 150.367L104.172 143.94Z" fill="white"/>
<path opacity="0.1" d="M173.763 191.383C174.575 192.371 174.063 196.803 174.063 196.803L171.821 200.516C171.821 200.516 171.955 202.913 171.963 206.143L168.192 207.321C167.851 207.428 167.49 207.451 167.138 207.389C166.787 207.328 166.455 207.183 166.171 206.967C165.886 206.751 165.658 206.471 165.504 206.148C165.35 205.826 165.276 205.472 165.287 205.115L165.937 184.148L174.734 187.512C173.986 188.032 174.807 189.307 174.807 189.307C174.807 189.307 172.942 190.396 173.763 191.383Z" fill="black"/>
<path d="M174.214 190.932C175.026 191.92 174.515 196.356 174.515 196.356L172.272 200.069C172.272 200.069 172.406 202.462 172.418 205.696L168.578 206.895C168.244 206.998 167.891 207.021 167.547 206.96C167.202 206.9 166.878 206.758 166.599 206.546C166.321 206.335 166.097 206.06 165.947 205.745C165.796 205.429 165.723 205.083 165.734 204.733L166.388 183.701L175.189 187.065C174.437 187.585 175.258 188.856 175.258 188.856C175.258 188.856 173.401 189.949 174.214 190.932Z" fill="white"/>
<path d="M177.127 180.938C177.127 180.938 176.53 184.753 175.035 184.977C173.539 185.2 172.869 191.148 171.378 190.937C169.886 190.725 170.874 185.407 170.927 184.375C170.979 183.343 169.301 179.07 170.557 178.099C171.812 177.128 175.786 178.099 175.786 178.099L177.127 180.938Z" fill="#CF6F80"/>
<path opacity="0.1" d="M180.309 151.561L183.128 145.874C183.128 145.874 184.25 150.208 184.25 152.524C184.25 154.84 185.818 155.067 185.818 155.067C185.818 155.067 187.537 157.099 186.631 158.577C185.725 160.056 185.359 163.737 185.359 163.737C185.359 163.737 185.656 170.761 184.311 171.732C182.966 172.703 182.686 175.023 182.686 175.023C182.686 175.023 180.215 179.431 180.292 180.479C180.37 181.527 176.855 188.625 176.855 188.625C176.855 188.625 178.574 179.805 168.558 175.994C168.558 175.994 168.481 173 169.228 172.179C169.976 171.359 171.142 170.985 170.411 166.837C169.679 162.689 170.199 157.732 170.199 156.737C170.199 155.742 172.442 149.534 172.442 149.534L180.309 151.561Z" fill="black"/>
<path d="M181.528 145.061L183.99 145.874C183.99 145.874 185.115 150.208 185.115 152.524C185.115 154.84 186.684 155.067 186.684 155.067C186.684 155.067 188.403 157.099 187.496 158.577C186.59 160.056 186.229 163.737 186.229 163.737C186.229 163.737 186.525 170.761 185.18 171.732C183.835 172.703 183.535 175.023 183.535 175.023C183.535 175.023 181.068 179.431 181.146 180.479C181.223 181.527 177.704 188.625 177.704 188.625C177.704 188.625 179.427 179.805 169.407 175.994C169.407 175.994 169.334 173 170.082 172.179C170.829 171.359 171.995 170.985 171.264 166.837C170.533 162.689 171.053 157.732 171.053 156.737C171.053 155.742 173.296 149.534 173.296 149.534L181.528 145.061Z" fill="white"/>
<path opacity="0.1" d="M127.142 292.482C127.142 292.482 131.067 290.016 133.643 291.808C136.219 293.6 127.142 292.482 127.142 292.482Z" fill="black"/>
<path opacity="0.1" d="M157.64 284.857C157.64 284.857 161.114 284.41 164.031 287.55C166.949 290.691 157.64 284.857 157.64 284.857Z" fill="black"/>
<g opacity="0.1">
<path opacity="0.1" d="M162.723 88.383C162.223 88.8136 161.581 89.1224 161.248 89.6952C160.964 90.1868 160.956 90.7921 160.728 91.3203C160.5 91.8484 159.838 92.2791 159.379 91.9459C159.273 88.2896 157.469 84.8566 155.255 81.9315C154.636 81.0487 153.883 80.2675 153.024 79.6158C152.155 78.9621 151.072 78.6564 149.989 78.7586C148.77 78.9251 147.697 79.7539 146.466 79.8555C144.841 79.9936 143.382 78.8683 141.769 78.8114C141.114 78.8179 140.467 78.9645 139.873 79.2412C139.279 79.518 138.75 79.9186 138.324 80.4161C137.475 81.4164 136.846 82.583 136.475 83.8409C135.836 85.7498 135.488 87.7439 135.443 89.7562C135.418 90.8896 135.313 92.3034 134.264 92.726C134.289 93.0261 134.289 93.3277 134.264 93.6279C135.321 93.2216 135.426 91.7915 135.451 90.654C135.496 88.6417 135.844 86.6476 136.483 84.7388C136.854 83.4796 137.483 82.3117 138.332 81.3099C138.759 80.8137 139.288 80.4143 139.882 80.1383C140.476 79.8623 141.122 79.716 141.777 79.7092C143.403 79.7661 144.865 80.8874 146.474 80.7533C147.693 80.6518 148.774 79.8189 149.997 79.6564C151.08 79.5542 152.163 79.8599 153.032 80.5136C153.891 81.1654 154.644 81.9466 155.263 82.8293C157.477 85.7504 159.282 89.1752 159.387 92.8397C159.846 93.1769 160.509 92.7381 160.736 92.2181C160.964 91.6981 160.972 91.0887 161.256 90.5931C161.589 90.0202 162.231 89.7155 162.731 89.2849C163.999 88.192 164.316 86.3517 164.267 84.6819C164.267 84.6291 164.267 84.5763 164.267 84.5275C164.19 85.9738 163.804 87.4486 162.723 88.383Z" fill="black"/>
<path opacity="0.1" d="M132.729 88.0945C131.794 87.0667 130.518 86.3801 129.661 85.2913C128.939 84.3275 128.527 83.1672 128.478 81.964C128.351 83.4676 128.77 84.9667 129.661 86.1851C130.518 87.2779 131.794 87.9645 132.729 88.9924C133.626 89.9978 134.164 91.2722 134.26 92.6163C134.323 91.7983 134.219 90.9762 133.956 90.1992C133.693 89.4222 133.275 88.7063 132.729 88.0945Z" fill="black"/>
<path opacity="0.1" d="M165.059 75.8294C164.82 76.8248 164.393 77.7713 164.198 78.7748C164.083 79.4454 164.04 80.1265 164.072 80.8061C164.086 80.419 164.128 80.0333 164.198 79.6524C164.393 78.6448 164.82 77.7023 165.059 76.7069C165.199 76.1579 165.244 75.5892 165.194 75.025C165.168 75.296 165.123 75.5649 165.059 75.8294Z" fill="black"/>
</g>
<path opacity="0.1" d="M53.9309 309.001C75.7968 309.001 93.5227 306.155 93.5227 302.643C93.5227 299.132 75.7968 296.285 53.9309 296.285C32.0649 296.285 14.3391 299.132 14.3391 302.643C14.3391 306.155 32.0649 309.001 53.9309 309.001Z" fill="#04A4BC"/>
<path d="M55.2067 180.845H52.6591V238.197H55.2067V180.845Z" fill="#535461"/>
<path d="M71.2157 238.023L71.0572 240.606L70.8297 244.263L70.7363 245.782L70.5128 249.439L70.4153 250.958L70.1877 254.615L67.6198 296.082C67.5082 297.866 66.7208 299.541 65.4179 300.765C64.115 301.989 62.3946 302.671 60.6067 302.672H47.255C45.4675 302.671 43.7475 301.989 42.4453 300.765C41.1431 299.54 40.3566 297.866 40.246 296.082L37.6902 254.586L37.4627 250.93L37.3692 249.41L37.1417 245.754L37.0483 244.234L36.8207 240.578L36.6582 237.994C36.63 237.497 36.7036 236.999 36.8747 236.531C37.0458 236.063 37.3107 235.636 37.6531 235.274C37.9956 234.912 38.4083 234.624 38.8661 234.427C39.3238 234.231 39.8169 234.13 40.3151 234.131H67.6238C68.1201 234.135 68.6103 234.241 69.064 234.442C69.5178 234.643 69.9256 234.935 70.2621 235.299C70.5987 235.664 70.857 236.094 71.021 236.562C71.185 237.031 71.2513 237.528 71.2157 238.023Z" fill="#3F3D56"/>
<path d="M71.0573 240.606L70.8297 244.251H37.032L36.8045 240.606H71.0573Z" fill="#9D9CB5"/>
<path d="M70.7363 245.77L70.5128 249.418H37.353L37.1255 245.77H70.7363Z" fill="#9D9CB5"/>
<path d="M70.4153 250.942L70.1918 254.586H37.674L37.4464 250.942H70.4153Z" fill="#9D9CB5"/>
<path d="M32.916 202.34C47.7507 213.074 53.9431 229.861 53.9431 229.861C53.9431 229.861 36.065 229.247 21.2262 218.514C6.38734 207.78 0.207214 190.997 0.207214 190.997C0.207214 190.997 18.0772 191.607 32.916 202.34Z" fill="#04A4BC"/>
<path d="M0.195038 190.997C0.195038 190.997 18.7557 201.296 24.7083 209.824C30.6609 218.351 53.9431 229.861 53.9431 229.861" stroke="#535461" stroke-width="2" stroke-miterlimit="10"/>
<path d="M42.493 180.719C50.5666 186.557 53.9431 195.694 53.9431 195.694C53.9431 195.694 44.2117 195.361 36.1341 189.523C28.0564 183.685 24.688 174.544 24.688 174.544C24.688 174.544 34.4153 174.877 42.493 180.719Z" fill="#04A4BC"/>
<path d="M24.688 174.544C24.688 174.544 34.7891 180.15 38.0275 184.79C41.2659 189.429 53.9431 195.694 53.9431 195.694" stroke="#535461" stroke-width="2" stroke-miterlimit="10"/>
<path d="M65.6654 195.231C56.3891 205.424 54.4266 218.745 54.4266 218.745C54.4266 218.745 67.506 215.536 76.7742 205.339C86.0423 195.141 88.013 181.824 88.013 181.824C88.013 181.824 74.9417 185.038 65.6654 195.231Z" fill="#04A4BC"/>
<path d="M88.0211 181.828C88.0211 181.828 75.9372 192.277 72.8654 199.476C69.7936 206.675 54.4266 218.745 54.4266 218.745" stroke="#535461" stroke-width="2" stroke-miterlimit="10"/>
<path d="M406.186 191.643C406.186 191.643 399.478 158.273 402.046 154.121C402.046 154.121 402.139 150.261 401.985 145.341C401.985 145.154 401.985 144.968 401.985 144.777C402.437 145.078 402.908 145.349 403.395 145.589C405.761 146.805 408.477 147.155 411.074 146.58L409.042 144.318C408.555 143.777 408.047 143.192 407.941 142.477C407.836 141.762 408.128 141.124 408.38 140.486C410.31 135.611 410.412 129.481 406.694 125.759C403.553 122.631 402.789 118.593 399.38 115.737C396.889 113.645 395.52 110.577 394.228 107.612C393.135 105.105 392.034 102.578 391.408 99.9209C390.921 97.8449 390.726 95.6958 390.055 93.6685C389.385 91.6412 388.129 89.6708 386.167 88.7649C385.468 88.4439 384.692 88.2611 384.054 87.8345C383.217 87.2698 382.713 86.3517 382.108 85.5473C379.032 81.4846 368.731 83.8775 363.856 85.5269C362.53 85.9423 361.303 86.6223 360.247 87.5258L360.292 87.4526C360.329 87.3917 360.373 87.3308 360.414 87.2698C359.88 87.7013 359.419 88.2157 359.049 88.7933C358.338 89.9187 358.041 91.2309 357.448 92.4497C356.733 93.8919 352.755 97.918 354.466 99.539C354.585 99.6479 354.723 99.7358 354.872 99.799C355.514 100.066 356.221 100.137 356.903 100.002L356.83 100.177C356.246 101.607 355.947 103.137 355.949 104.682C355.949 111.357 361.454 116.769 368.252 116.769C369.53 116.77 370.8 116.574 372.019 116.188C372.047 116.342 372.071 116.497 372.1 116.651C372.1 116.712 372.12 116.773 372.128 116.834L371.913 117.134C371.902 117.116 371.89 117.098 371.876 117.082L365.497 125.995C364.522 126.682 358.907 130.744 358.59 133.791C358.257 137.127 357.923 141.031 357.923 141.031L357.879 141.868C357.6 142.101 357.274 142.27 356.923 142.365C356.572 142.46 356.205 142.477 355.847 142.416C353.856 142.091 353.856 149.729 353.856 149.729C353.856 149.729 352.531 150.948 351.621 149.892C350.711 148.835 348.306 152.414 348.306 152.414L333.231 153.064L332.886 153.085L332.073 150.57C331.986 150.305 331.797 150.085 331.548 149.958C331.3 149.831 331.011 149.807 330.745 149.892C330.682 149.912 330.62 149.938 330.562 149.969L330.505 150.001L330.399 150.074L330.346 150.123C330.317 150.15 330.29 150.178 330.265 150.208L330.216 150.265L330.192 150.29C330.098 150.419 330.036 150.569 330.011 150.727C329.985 150.885 329.997 151.047 330.046 151.2L330.745 153.357C327.835 153.942 324.861 155.591 327.287 160.133L314.992 157.862L318.969 161.202L339.505 165.439C339.233 165.927 339.411 166.634 340.261 167.629C343.917 171.923 350.581 173.089 353.263 173.39C353.971 174.974 354.856 176.473 355.9 177.859L355.668 182.137C355.668 182.137 348.879 214.744 347.635 216.397C348.263 215.686 348.837 214.93 349.354 214.134C347.383 220.834 344.629 230.003 343.905 231.376C342.743 233.57 341.666 242.447 342.991 243.016C343.397 243.19 344.559 243.105 346.217 242.979V243.714L346.144 271.58C346.144 271.58 346.477 288.672 345.563 290.301C344.649 291.93 344.405 295.347 344.405 295.347C344.405 295.347 340.748 302.087 337.851 304.796C337.831 304.817 337.81 304.837 337.786 304.853L337.697 304.219C337.697 304.219 334.215 308.615 326.511 308.367C326.511 308.367 321.875 311.382 328.75 311.544C335.625 311.707 344.405 311.301 344.405 311.301C344.405 311.301 350.536 301.957 355.672 303.175V310.257H357.245V303.062C357.974 302.582 358.598 301.959 359.079 301.23C359.561 300.502 359.889 299.683 360.044 298.824C360.179 297.939 360.08 297.034 359.758 296.198C359.436 295.362 358.902 294.625 358.208 294.059C357.896 293.777 357.646 293.434 357.473 293.051C357.3 292.667 357.209 292.253 357.204 291.832L357.147 291.881C357.147 291.739 357.111 291.593 357.094 291.442C356.643 287.786 356.079 280.242 358.074 274.66C360.808 267.006 361.637 256.345 359.646 249.999C359.004 247.971 358.476 245.908 358.066 243.82C358.017 243.556 357.972 243.304 357.931 243.068C359.292 243.253 360.64 243.524 361.966 243.881C366.578 245.153 376.667 245.388 385.281 245.319C385.301 245.555 385.326 245.803 385.354 246.05C385.508 247.773 385.829 249.477 386.313 251.137C387.394 254.387 387.889 268.716 387.889 268.716C387.889 268.716 389.283 280.498 388.523 285.292C388.117 287.957 387.711 290.634 387.479 293.323V293.376C387.479 293.376 385.196 299.877 383.526 303.407C383.485 303.496 383.44 303.586 383.4 303.671C382.954 303.712 382.516 303.809 382.095 303.959C382.095 303.959 379.857 308.428 377.626 309.168C375.395 309.907 376.135 312.341 381.185 311.447C386.236 310.553 393.862 309.822 393.862 309.822L394.191 305.264L395.744 303.322L395.337 307.868L396.991 307.543L396.772 302.013L399.311 298.836C399.311 298.836 402.379 296.106 397.82 290.736V290.853C397.771 290.776 397.726 290.695 397.674 290.618V290.593C396.918 289.423 396.317 287.242 397.418 283.37C399.409 276.374 400.567 270.024 400.567 270.024C400.567 270.024 405.012 253.014 399.669 244.966H399.904C399.357 243.833 398.97 242.63 398.754 241.391C398.727 241.244 398.703 241.094 398.681 240.94C402.635 240.712 406.515 239.997 409.68 238.453C409.668 238.437 407.763 198.071 406.186 191.643ZM355.993 163.489V163.57L355.181 163.611L355.993 163.489ZM353.206 163.875C353.072 163.905 352.947 163.965 352.84 164.05C352.491 164.544 352.272 165.118 352.202 165.72L350.935 165.435C350.935 165.435 350.045 165.244 348.765 165.029L348.159 164.42C349.825 164.281 351.556 164.078 353.206 163.875Z" fill="url(#paint1_linear)"/>
<path d="M395.15 302.07L394.667 307.827L396.288 307.502L396.044 301.258L395.15 302.07Z" fill="#1D2366"/>
<path d="M358.163 274.737C356.209 280.303 356.761 287.815 357.2 291.463C357.363 292.812 357.513 293.632 357.513 293.632C357.513 293.632 354.591 300.287 354.348 300.539C354.104 300.791 345.75 305.889 345.75 305.889L339.911 309.298C339.911 309.298 333.987 306.702 336.827 305.808C337.407 305.575 337.93 305.219 338.359 304.764C341.203 302.062 344.775 295.347 344.775 295.347C344.775 295.347 345.019 291.938 345.912 290.317C346.806 288.696 346.481 271.661 346.481 271.661L346.55 243.893V240.273L357.663 240.355C357.733 241.583 357.894 242.806 358.143 244.011C358.542 246.092 359.058 248.148 359.691 250.17C361.649 256.504 360.837 267.111 358.163 274.737Z" fill="#FFB0B1"/>
<path opacity="0.1" d="M357.513 293.632C357.513 293.632 354.592 300.287 354.348 300.539C354.104 300.791 345.75 305.889 345.75 305.889L339.911 309.298C339.911 309.298 333.987 306.702 336.827 305.808C337.407 305.575 337.93 305.219 338.359 304.764L338.611 306.539L340.557 306.458L357.216 291.471C357.363 292.812 357.513 293.632 357.513 293.632Z" fill="black"/>
<path d="M357.31 291.849L340.557 306.937L338.611 307.019L338.205 304.175C338.205 304.175 334.8 308.554 327.234 308.311C327.234 308.311 322.691 311.313 329.424 311.475C336.157 311.638 344.754 311.232 344.754 311.232C344.754 311.232 350.76 301.888 355.786 303.106V310.163H357.33V303.041C358.048 302.558 358.661 301.935 359.131 301.209C359.602 300.483 359.921 299.669 360.069 298.816C360.202 297.938 360.108 297.04 359.794 296.209C359.48 295.378 358.958 294.642 358.277 294.071C357.973 293.786 357.73 293.442 357.564 293.06C357.398 292.678 357.311 292.265 357.31 291.849Z" fill="#1D2366"/>
<path d="M396.694 283.415C395.614 287.274 396.203 289.448 396.942 290.614V290.638C397.891 292.078 398.55 293.688 398.884 295.379L398.949 295.745L391.327 306.856L387.191 308.481C387.191 308.481 380.539 306.21 381.754 305.56C382.059 305.402 382.534 304.557 383.079 303.391C384.704 299.877 386.947 293.393 386.947 293.393V293.34C387.182 290.662 387.556 287.993 387.971 285.336C388.714 280.555 387.349 268.818 387.349 268.818C387.349 268.818 386.861 254.545 385.805 251.299C385.328 249.649 385.011 247.957 384.858 246.245C384.639 244.214 384.59 242.54 384.59 242.54C384.59 242.54 388.97 236.446 396.999 243.028C397.641 243.553 398.206 244.165 398.677 244.848C404.223 252.738 399.758 270.118 399.758 270.118C399.758 270.118 398.641 276.439 396.694 283.415Z" fill="#FFB0B1"/>
<path opacity="0.1" d="M398.962 295.745L391.339 306.856L387.203 308.481C387.203 308.481 380.551 306.21 381.766 305.56C382.071 305.402 382.546 304.557 383.091 303.391C385.907 303.366 387.365 306.048 387.365 306.048L390.933 305.479C390.933 305.479 395.638 296.232 396.694 295.668C397.751 295.103 396.857 291.446 396.857 291.446V290.516C396.885 290.549 396.91 290.585 396.942 290.618V290.642C397.891 292.082 398.55 293.692 398.884 295.383L398.962 295.745Z" fill="black"/>
<path d="M387.609 306.287C387.609 306.287 385.577 302.558 381.685 303.935C381.685 303.935 379.495 308.404 377.305 309.127C375.115 309.85 375.846 312.288 380.795 311.398C385.744 310.508 393.204 309.773 393.204 309.773L393.529 305.227L398.559 298.82C398.559 298.82 401.558 296.102 397.097 290.752V291.682C397.097 291.682 397.991 295.339 396.934 295.903C395.878 296.468 391.189 305.719 391.189 305.719L387.609 306.287Z" fill="#1D2366"/>
<path opacity="0.1" d="M357.675 240.346C357.746 241.575 357.906 242.797 358.155 244.003C353.58 243.333 349.334 243.666 346.55 243.885V240.265L357.675 240.346Z" fill="black"/>
<path opacity="0.1" d="M399.128 245.859C399.128 245.859 392.627 246.176 384.875 246.241C384.655 244.21 384.606 242.536 384.606 242.536C384.606 242.536 388.986 236.442 397.015 243.024C397.657 243.549 398.222 244.161 398.693 244.844C398.819 245.19 398.965 245.529 399.128 245.859Z" fill="black"/>
<path d="M399.128 245.128C399.128 245.128 370.653 246.505 361.974 244.072C353.295 241.638 344.694 243.747 343.397 243.182C342.101 242.617 343.154 233.773 344.291 231.583C345.429 229.394 351.67 207.248 351.67 207.248L357.675 175.941L364.002 174.198L364.449 174.072L375.472 171.034L383.55 168.803C383.55 168.803 399.612 231.502 398.234 236.125C397.734 237.896 397.653 239.758 397.999 241.565C398.209 242.799 398.589 243.998 399.128 245.128Z" fill="#1D2366"/>
<path d="M336.742 154.531C336.742 154.531 331.053 160.625 335.36 164.021C339.667 167.418 342.499 164.346 342.499 164.346L336.742 154.531Z" fill="#C7DAF5"/>
<path opacity="0.1" d="M336.742 154.531C336.742 154.531 331.053 160.625 335.36 164.021C339.667 167.418 342.499 164.346 342.499 164.346L336.742 154.531Z" fill="black"/>
<path d="M382.701 114.465C382.701 114.465 382.034 115.099 381.031 116.033C379.601 117.37 377.484 119.324 375.606 120.961C373.006 123.224 370.861 124.886 371.629 123.468C372.396 122.05 372.25 119.58 371.868 117.268C371.84 117.114 371.815 116.96 371.787 116.809C371.471 115.112 371.051 113.435 370.531 111.788C370.531 111.788 374.733 106.36 377.057 104.219C377.922 103.407 378.528 103.074 378.564 103.638C378.605 104.398 379.174 106.076 379.881 107.855C379.901 107.912 379.922 107.965 379.946 108.022C380.417 109.241 380.95 110.492 381.417 111.573C382.132 113.23 382.701 114.465 382.701 114.465Z" fill="#FFB0B1"/>
<path opacity="0.1" d="M379.946 108.022C379.551 110.145 378.593 112.123 377.172 113.75C375.751 115.377 373.919 116.592 371.868 117.268C371.545 115.414 371.099 113.583 370.531 111.788C370.531 111.788 378.442 101.57 378.564 103.638C378.593 104.422 379.21 106.161 379.946 108.022Z" fill="black"/>
<path opacity="0.1" d="M371.08 119.999L372.104 118.556C372.104 118.556 372.782 122.692 375.277 120.868C377.772 119.044 377.894 134.596 377.894 134.596L375.216 174.625L355.867 173.467L356.416 154.125L358.606 144.374L364.022 130.2L367.244 125.516L371.08 119.999Z" fill="black"/>
<path d="M377.894 134.843L375.456 171.038L375.2 174.873L364.412 174.227L364.006 174.202L355.88 173.715L356.428 154.369L358.618 144.618L364.034 130.444L367.256 125.759L371.092 120.222L372.116 118.784C372.116 118.784 372.795 122.92 375.289 121.095L375.342 121.059C377.78 119.515 377.894 134.843 377.894 134.843Z" fill="#1D2366"/>
<path d="M358.89 141.23C358.89 141.23 357.919 143.261 355.969 142.932C354.019 142.603 354.023 150.245 354.023 150.245C354.023 150.245 352.727 151.464 351.833 150.407C350.939 149.351 348.582 152.922 348.582 152.922L333.816 153.572C333.816 153.572 340.387 156.575 339.099 165.659C339.099 165.659 361.406 164.277 362.137 162.169C362.868 160.06 358.89 141.23 358.89 141.23Z" fill="white"/>
<path opacity="0.03" d="M358.89 141.23C358.89 141.23 357.919 143.261 355.969 142.932C354.019 142.603 354.023 150.245 354.023 150.245C354.023 150.245 352.727 151.464 351.833 150.407C350.939 149.351 348.582 152.922 348.582 152.922L333.816 153.572C333.816 153.572 340.387 156.575 339.099 165.659C339.099 165.659 361.406 164.277 362.137 162.169C362.868 160.06 358.89 141.23 358.89 141.23Z" fill="black"/>
<path d="M315.979 158.346L319.871 161.669L351.914 168.401L347.94 164.346L315.979 158.346Z" fill="white"/>
<path d="M371.141 121.278C370.609 122.091 369.085 126.251 367.813 129.883C366.753 132.91 365.867 135.571 365.867 135.571C365.867 135.571 363.799 149.034 362.742 151.468C361.686 153.901 362.259 163.392 362.259 163.392L358.321 186.829C358.321 186.829 356.538 198.916 353.783 206.135C351.065 213.24 348.038 216.572 347.944 216.677C349.163 215.028 355.806 182.551 355.806 182.551L358.001 141.592C358.001 141.592 358.321 137.7 358.647 134.372C358.972 131.045 365.554 126.503 365.554 126.503L371.901 117.48C372.539 118.333 372.112 119.82 371.141 121.278Z" fill="white"/>
<path d="M354.592 173.918C354.592 173.918 345.246 173.512 340.72 168.076C336.193 162.64 351.182 165.906 351.182 165.906L355.079 166.8L354.592 173.918Z" fill="#FFB0B1"/>
<path opacity="0.1" d="M398.234 236.129C397.734 237.9 397.653 239.762 397.999 241.569C387.804 242.292 376.898 239.538 376.898 239.538C374.867 241.407 369.516 244.161 369.516 244.161L366.598 208.004C364.733 203.129 364.002 177.587 364.002 177.587C364.002 177.587 364.168 176.25 364.408 174.247C364.408 174.198 364.408 174.146 364.429 174.097C365.156 168.503 366.598 158.001 367.305 156.583C368.28 154.633 364.307 149.445 364.307 149.445L366.115 134.027L366.334 132.166C370.145 130.464 373.067 125.028 373.067 125.028L375.31 121.099C377.748 119.535 377.874 134.864 377.874 134.864L375.436 171.058L383.513 168.828C383.513 168.828 399.612 231.506 398.234 236.129Z" fill="black"/>
<path d="M408.697 238.628C397.584 244.145 377.386 239.034 377.386 239.034C375.354 240.903 370.003 243.658 370.003 243.658L367.082 207.5C365.221 202.625 364.489 177.083 364.489 177.083C364.489 177.083 366.838 158.025 367.813 156.079C368.098 155.51 367.959 154.665 367.622 153.755C365.964 149.424 365.354 144.761 365.842 140.149L366.623 133.523L366.838 131.666C370.653 129.96 373.575 124.524 373.575 124.524L375.606 120.965L379.345 114.408L381.116 111.304L381.417 111.577L383.712 113.657C383.712 113.657 384.688 114.469 386.15 115.688C389.332 118.369 394.829 123.09 397.665 125.979C400.16 128.522 400.949 138.415 401.176 145.861C401.326 150.765 401.237 154.608 401.237 154.608C398.722 158.748 405.3 191.985 405.3 191.985C406.832 198.408 408.697 238.628 408.697 238.628Z" fill="white"/>
<path opacity="0.03" d="M387.365 124.443C387.365 124.443 379.739 138.959 380.624 144.476C381.51 149.993 384.029 156.237 382.815 157.696C382.397 158.248 381.857 158.697 381.238 159.006C380.618 159.316 379.936 159.478 379.243 159.479C378.024 159.561 374.773 161.832 374.773 162.075C374.773 162.319 371.771 162.319 369.085 163.457C366.399 164.594 362.433 165.24 362.433 165.24C362.433 165.24 354.713 164.996 353.994 165.728C353.275 166.459 352.536 170.835 354.075 174.324C355.615 177.814 357.326 180.418 358.618 180.894C359.91 181.369 368.11 178.623 374.761 177.973C381.413 177.323 388.633 172.053 388.633 172.053C388.633 172.053 396.585 169.209 397.978 164.428C399.372 159.646 396.276 133.365 396.276 133.365C396.276 133.365 393.935 121.116 387.365 124.443Z" fill="black"/>
<path opacity="0.03" d="M386.39 123.224C386.39 123.224 378.764 137.744 379.657 143.257C380.551 148.77 383.062 155.019 381.843 156.481C381.427 157.034 380.889 157.483 380.27 157.793C379.651 158.102 378.968 158.264 378.276 158.265C377.057 158.346 373.806 160.617 373.806 160.861C373.806 161.104 370.804 161.104 368.118 162.238C365.432 163.371 361.466 164.021 361.466 164.021C361.466 164.021 353.746 163.778 353.031 164.509C352.316 165.24 351.568 169.62 353.112 173.106C354.656 176.591 356.363 179.2 357.655 179.675C358.947 180.15 367.147 177.404 373.798 176.758C380.45 176.112 387.67 170.835 387.67 170.835C387.67 170.835 395.618 167.991 396.995 163.213C398.373 158.435 395.293 132.146 395.293 132.146C395.293 132.146 392.96 119.901 386.39 123.224Z" fill="black"/>
<path d="M387.126 123.712C387.126 123.712 379.499 138.232 380.393 143.745C381.287 149.258 383.798 155.506 382.583 156.965C382.167 157.519 381.628 157.969 381.008 158.279C380.388 158.59 379.705 158.752 379.011 158.752C377.792 158.833 374.542 161.104 374.542 161.344C374.542 161.584 371.543 161.588 368.853 162.725C366.164 163.863 362.202 164.509 362.202 164.509C362.202 164.509 354.482 164.265 353.763 164.996C353.043 165.728 352.304 170.107 353.844 173.593C355.384 177.079 357.094 179.687 358.387 180.162C359.679 180.638 367.878 177.891 374.53 177.241C381.181 176.591 388.401 171.322 388.401 171.322C388.401 171.322 396.353 168.478 397.747 163.696C399.14 158.915 396.065 132.633 396.065 132.633C396.065 132.633 393.692 120.405 387.126 123.712Z" fill="white"/>
<path opacity="0.1" d="M386.959 162.656C386.959 162.656 380.864 161.438 382.985 163.469C385.106 165.5 385.094 167.28 387.69 167.198C390.287 167.117 386.959 162.656 386.959 162.656Z" fill="black"/>
<path opacity="0.1" d="M397.259 206.362C397.259 206.362 394.504 208.227 399.774 212.525C405.044 216.824 397.259 206.362 397.259 206.362Z" fill="black"/>
<path opacity="0.1" d="M392.001 221.691C392.001 221.935 391.026 230.629 394.675 232.802C398.324 234.976 392.001 221.691 392.001 221.691Z" fill="black"/>
<path d="M334.068 153.552C331.127 153.654 324.772 154.551 328.067 160.698C330.98 166.138 335.876 162.502 338.631 159.743C337.959 157.172 336.326 154.956 334.068 153.552Z" fill="#FFB0B1"/>
<path d="M338.668 159.695L338.79 159.569L338.668 159.695Z" fill="#FFB0B1"/>
<path opacity="0.1" d="M386.15 115.936C383.03 118.069 380.413 119.869 379.901 120.242C378.503 121.278 375.838 127.36 374.119 130.464C372.75 132.962 368.301 133.604 366.623 133.763L366.838 131.906C370.653 130.2 373.575 124.764 373.575 124.764L381.116 111.544L383.712 113.905C383.712 113.905 384.688 114.717 386.15 115.936Z" fill="black"/>
<path d="M386.15 115.692C383.03 117.825 380.413 119.625 379.901 120.003C378.503 121.035 375.838 127.116 374.119 130.22C372.75 132.719 368.301 133.361 366.623 133.519L366.838 131.662C370.653 129.956 373.575 124.52 373.575 124.52L381.116 111.3L383.712 113.653C383.712 113.653 384.688 114.457 386.15 115.692Z" fill="#DCE7FF"/>
<path d="M380.145 105.34C380.147 107.779 379.407 110.161 378.024 112.17C376.391 114.545 373.96 116.256 371.173 116.992C368.386 117.729 365.427 117.442 362.833 116.184C360.239 114.926 358.183 112.779 357.036 110.135C355.89 107.49 355.729 104.522 356.584 101.769C357.439 99.0163 359.253 96.6611 361.696 95.1309C364.139 93.6007 367.05 92.9968 369.9 93.4289C372.75 93.861 375.351 95.3003 377.231 97.4858C379.111 99.6712 380.145 102.458 380.145 105.34Z" fill="#FFB0B1"/>
<path opacity="0.1" d="M401.176 145.865C399.526 144.851 398.182 143.407 397.288 141.689C396.609 140.348 396.158 138.801 395 137.85C393.956 136.997 392.562 136.789 391.262 136.408C386.987 135.144 383.404 131.244 383.27 126.791C383.205 124.695 383.859 122.603 383.562 120.527C383.393 119.352 382.926 118.24 382.205 117.297C381.847 116.846 381.454 116.424 381.031 116.033C380.462 115.497 379.865 114.977 379.345 114.408C379.017 114.056 378.731 113.668 378.491 113.25C378.298 112.909 378.141 112.548 378.024 112.174C377.211 109.688 377.951 106.738 377.057 104.223L377.008 104.085C376.671 103.191 375.984 102.298 375.029 102.229C374.075 102.159 373.258 102.952 372.348 103.305C370.442 104.045 368.386 102.785 366.797 101.501C365.209 100.217 363.417 98.7509 361.397 99.0353C360.061 99.2262 359.004 100.136 357.773 100.607C357.495 100.715 357.208 100.798 356.916 100.855C357.958 98.2573 359.872 96.1032 362.33 94.763C364.787 93.4229 367.635 92.9804 370.384 93.5116C373.132 94.0428 375.61 95.5145 377.392 97.6739C379.173 99.8332 380.146 102.545 380.145 105.345C380.146 106.19 380.058 107.033 379.881 107.859C379.901 107.916 379.922 107.969 379.946 108.026C380.417 109.245 380.95 110.496 381.417 111.577L383.712 113.657C383.712 113.657 384.688 114.469 386.15 115.688C389.332 118.369 394.829 123.09 397.665 125.979C400.16 128.53 400.94 138.419 401.176 145.865Z" fill="black"/>
<path d="M357.631 93.185C358.212 92.0028 358.5 90.6784 359.195 89.5571C360.215 87.932 361.995 86.892 363.823 86.2623C368.597 84.6169 378.686 82.2281 381.701 86.2623C382.294 87.0748 382.786 87.9767 383.607 88.5374C384.233 88.964 384.988 89.1468 385.675 89.4677C387.597 90.3696 388.824 92.336 389.478 94.3429C390.132 96.3499 390.327 98.5031 390.807 100.571C391.42 103.224 392.497 105.739 393.57 108.237C394.833 111.187 396.174 114.246 398.612 116.33C401.94 119.174 402.675 123.2 405.763 126.32C409.42 130.025 409.302 136.139 407.417 140.994C407.169 141.632 406.889 142.298 406.986 142.977C407.084 143.655 407.588 144.273 408.063 144.813L410.062 147.068C405.333 148.21 399.982 145.74 397.779 141.405C397.101 140.064 396.65 138.52 395.488 137.565C394.447 136.712 393.05 136.509 391.754 136.127C387.479 134.86 383.895 130.956 383.761 126.503C383.696 124.411 384.35 122.318 384.054 120.246C383.889 119.064 383.42 117.944 382.693 116.996C381.575 115.538 379.889 114.559 378.979 112.934C377.439 110.216 378.609 106.685 377.5 103.768C377.159 102.874 376.476 101.981 375.521 101.912C374.566 101.843 373.75 102.635 372.835 102.988C370.934 103.728 368.878 102.472 367.289 101.184C365.7 99.8966 363.908 98.434 361.885 98.7224C360.548 98.9093 359.496 99.8194 358.265 100.295C357.355 100.644 355.51 100.957 354.713 100.189C353.031 98.6412 356.928 94.6314 357.631 93.185Z" fill="#591D4B"/>
<path opacity="0.1" d="M398.909 140.064C398.226 138.723 397.779 137.18 396.617 136.229C395.577 135.376 394.179 135.168 392.879 134.787C388.609 133.523 385.025 129.619 384.887 125.166C384.822 123.074 385.476 120.978 385.183 118.906C385.013 117.73 384.545 116.618 383.822 115.676C382.701 114.217 381.015 113.238 380.108 111.613C378.568 108.899 379.739 105.369 378.625 102.448C378.288 101.558 377.601 100.664 376.651 100.591C375.7 100.518 374.875 101.318 373.965 101.672C372.063 102.411 370.003 101.152 368.419 99.8681C366.834 98.5843 365.034 97.1177 363.015 97.4021C361.678 97.593 360.621 98.5031 359.394 98.9743C358.484 99.3237 356.635 99.6406 355.839 98.8728C354.165 97.2477 358.062 93.246 358.76 91.8078C359.341 90.6215 359.63 89.3011 360.329 88.1799C360.365 88.1189 360.406 88.058 360.447 87.997C359.924 88.4301 359.473 88.9428 359.11 89.5165C358.415 90.6378 358.127 91.9541 357.546 93.1444C356.843 94.5826 352.946 98.5965 354.624 100.209C355.437 100.981 357.265 100.664 358.175 100.315C359.394 99.8397 360.459 98.9296 361.796 98.7427C363.827 98.4543 365.615 99.9209 367.2 101.205C368.784 102.489 370.857 103.748 372.75 103.009C373.66 102.655 374.457 101.859 375.432 101.932C376.407 102.005 377.057 102.895 377.41 103.789C378.52 106.706 377.35 110.236 378.889 112.954C379.8 114.551 381.486 115.55 382.603 117.017C383.33 117.964 383.799 119.084 383.964 120.267C384.261 122.339 383.607 124.431 383.672 126.523C383.806 130.992 387.39 134.88 391.664 136.148C392.952 136.529 394.358 136.733 395.398 137.586C396.564 138.54 397.024 140.084 397.69 141.425C399.892 145.76 405.243 148.23 409.973 147.088L409.03 146.024C404.931 146.085 400.782 143.753 398.909 140.064Z" fill="black"/>
<path opacity="0.1" d="M370.897 121.522C370.365 122.335 368.841 126.495 367.569 130.127C366.379 129.664 365.298 126.71 365.298 126.71L371.645 117.683C372.295 118.577 371.868 120.059 370.897 121.522Z" fill="black"/>
<path d="M371.141 121.278C370.609 122.091 369.085 126.251 367.813 129.883C366.623 129.424 365.542 126.466 365.542 126.466L371.889 117.443C372.539 118.333 372.112 119.82 371.141 121.278Z" fill="#DCE7FF"/>
<path d="M334.239 162.782L330.72 151.687C330.679 151.557 330.663 151.42 330.674 151.285C330.686 151.149 330.724 151.016 330.786 150.895C330.849 150.774 330.935 150.666 331.04 150.578C331.144 150.491 331.265 150.424 331.395 150.383C331.657 150.301 331.94 150.326 332.184 150.453C332.427 150.579 332.611 150.796 332.695 151.058L336.214 162.14L335.864 164.46L334.239 162.782Z" fill="#BE8B87"/>
<path opacity="0.1" d="M331.053 150.712C331.316 150.629 331.6 150.654 331.845 150.78C332.089 150.906 332.274 151.125 332.358 151.387L335.876 162.47L335.612 164.208L335.868 164.476L336.218 162.157L332.679 151.074C332.595 150.813 332.411 150.595 332.167 150.469C331.924 150.343 331.64 150.318 331.378 150.399C331.158 150.471 330.968 150.614 330.838 150.806C330.907 150.769 330.979 150.737 331.053 150.712Z" fill="white"/>
<path d="M334.239 162.782L336.214 162.157L335.925 164.058L335.864 164.476L335.287 163.875L334.239 162.782Z" fill="#EFC8C4"/>
<path d="M335.287 163.875C335.322 163.832 335.364 163.796 335.413 163.77C335.442 163.752 335.475 163.742 335.509 163.742C335.542 163.742 335.576 163.752 335.604 163.77C335.632 163.803 335.655 163.84 335.673 163.879C335.7 163.924 335.737 163.962 335.78 163.991C335.824 164.02 335.873 164.039 335.925 164.046L335.864 164.452L335.287 163.875Z" fill="#727A9C"/>
<path d="M330.7 155.628C330.7 155.628 337.758 155.587 336.096 158.59C334.434 161.592 331.838 161.954 331.838 161.954L330.7 155.628Z" fill="#FFB0B1"/>
<path d="M286.805 20.8902H286.5C274.376 20.8902 263.653 27.3051 257.485 36.7711C251.317 27.3051 240.594 20.8902 228.47 20.8902H228.165C219.066 20.9769 210.369 24.6505 203.963 31.1129C197.558 37.5752 193.962 46.304 193.957 55.4024C193.957 66.7006 198.906 82.7318 208.556 95.9233C226.942 121.059 257.485 143.05 257.485 143.05C257.485 143.05 288.028 121.063 306.41 95.9233C316.064 82.7318 321.009 66.7006 321.009 55.4024C321.004 46.3047 317.409 37.5765 311.004 31.1143C304.6 24.6521 295.904 20.9779 286.805 20.8902ZM282.445 97.8571C281.064 97.8518 279.717 97.4292 278.581 96.6447C277.445 95.8602 276.572 94.7505 276.078 93.4613H268.829C268.352 93.4583 267.888 93.3064 267.501 93.0267C267.114 92.747 266.824 92.3536 266.672 91.9012L264.445 85.1938L257.4 109.809C257.263 110.283 256.975 110.7 256.581 110.997C256.187 111.293 255.707 111.454 255.214 111.455H255.072C254.557 111.43 254.066 111.229 253.681 110.886C253.297 110.543 253.042 110.078 252.959 109.57L245.698 65.9043L240.391 91.7428C240.269 92.2336 239.987 92.6696 239.588 92.9811C239.19 93.2926 238.699 93.4616 238.193 93.4613H227.982C227.676 93.4742 227.371 93.4251 227.084 93.317C226.797 93.2088 226.535 93.0437 226.314 92.8318C226.093 92.6198 225.917 92.3653 225.797 92.0835C225.677 91.8018 225.615 91.4986 225.615 91.1923C225.615 90.886 225.677 90.5828 225.797 90.3011C225.917 90.0193 226.093 89.7648 226.314 89.5528C226.535 89.3409 226.797 89.1758 227.084 89.0676C227.371 88.9595 227.676 88.9104 227.982 88.9233H236.405L243.922 54.1836C244.045 53.67 244.343 53.2151 244.765 52.8969C245.187 52.5786 245.706 52.4167 246.234 52.4388C246.762 52.4608 247.265 52.6655 247.659 53.0179C248.053 53.3702 248.312 53.8483 248.392 54.3705L255.807 98.9134L262.121 76.8897C262.253 76.4259 262.531 76.017 262.914 75.7241C263.297 75.4312 263.764 75.2701 264.246 75.2647H264.291C264.768 75.2648 265.234 75.4157 265.62 75.6959C266.007 75.976 266.295 76.3711 266.444 76.8247L270.471 88.9355H275.989C276.381 87.7438 277.095 86.6836 278.052 85.872C279.009 85.0604 280.171 84.5289 281.411 84.3361C282.651 84.1434 283.92 84.297 285.078 84.7799C286.237 85.2627 287.239 86.0562 287.974 87.0726C288.71 88.089 289.15 89.2889 289.247 90.5398C289.344 91.7907 289.093 93.044 288.522 94.1613C287.951 95.2786 287.083 96.2166 286.013 96.8716C284.943 97.5267 283.712 97.8733 282.457 97.8733L282.445 97.8571Z" fill="#04A4BC"/>
</g>
<defs>
<linearGradient id="paint0_linear" x1="144.784" y1="314.803" x2="144.784" y2="64.8115" gradientUnits="userSpaceOnUse">
<stop stop-color="#808080" stop-opacity="0.25"/>
<stop offset="0.54" stop-color="#808080" stop-opacity="0.12"/>
<stop offset="1" stop-color="#808080" stop-opacity="0.1"/>
</linearGradient>
<linearGradient id="paint1_linear" x1="90696.9" y1="188622" x2="90696.9" y2="60299" gradientUnits="userSpaceOnUse">
<stop stop-color="#808080" stop-opacity="0.25"/>
<stop offset="0.54" stop-color="#808080" stop-opacity="0.12"/>
<stop offset="1" stop-color="#808080" stop-opacity="0.1"/>
</linearGradient>
<clipPath id="clip0">
<rect width="449" height="318" fill="white"/>
</clipPath>
</defs>
</svg>
