<svg width="123" height="35" viewBox="0 0 123 35" fill="none" xmlns="http://www.w3.org/2000/svg">
<path d="M21.7323 10.768V28H19.5003V15.736C19.5003 15.552 19.5043 15.356 19.5123 15.148C19.5283 14.94 19.5443 14.728 19.5603 14.512L13.8243 25.036C13.6243 25.428 13.3163 25.624 12.9003 25.624H12.5403C12.1243 25.624 11.8203 25.428 11.6283 25.036L5.78428 14.476C5.83228 14.924 5.85628 15.344 5.85628 15.736V28H3.61228V10.768H5.50828C5.73228 10.768 5.90428 10.792 6.02428 10.84C6.15228 10.88 6.27228 11 6.38428 11.2L12.1443 21.52C12.2563 21.728 12.3603 21.948 12.4563 22.18C12.5523 22.412 12.6443 22.644 12.7323 22.876C12.9003 22.404 13.0963 21.948 13.3203 21.508L18.9723 11.2C19.0763 11 19.1883 10.88 19.3083 10.84C19.4363 10.792 19.6123 10.768 19.8363 10.768H21.7323ZM33.2161 20.548C33.2161 20.084 33.1481 19.656 33.0121 19.264C32.8841 18.872 32.6921 18.532 32.4361 18.244C32.1801 17.956 31.8681 17.732 31.5001 17.572C31.1321 17.412 30.7081 17.332 30.2281 17.332C29.2441 17.332 28.4681 17.616 27.9001 18.184C27.3401 18.752 26.9841 19.54 26.8321 20.548H33.2161ZM35.1481 26.26C34.8601 26.596 34.5281 26.888 34.1521 27.136C33.7761 27.376 33.3761 27.572 32.9521 27.724C32.5281 27.876 32.0881 27.988 31.6321 28.06C31.1841 28.132 30.7401 28.168 30.3001 28.168C29.4601 28.168 28.6801 28.028 27.9601 27.748C27.2481 27.46 26.6281 27.044 26.1001 26.5C25.5801 25.948 25.1721 25.268 24.8761 24.46C24.5881 23.644 24.4441 22.708 24.4441 21.652C24.4441 20.804 24.5761 20.016 24.8401 19.288C25.1041 18.552 25.4801 17.912 25.9681 17.368C26.4641 16.824 27.0681 16.396 27.7801 16.084C28.4921 15.772 29.2921 15.616 30.1801 15.616C30.9241 15.616 31.6081 15.74 32.2321 15.988C32.8641 16.228 33.4081 16.58 33.8641 17.044C34.3201 17.508 34.6761 18.08 34.9321 18.76C35.1961 19.44 35.3281 20.216 35.3281 21.088C35.3281 21.448 35.2881 21.692 35.2081 21.82C35.1281 21.94 34.9801 22 34.7641 22H26.7721C26.7961 22.728 26.9001 23.364 27.0841 23.908C27.2681 24.444 27.5201 24.892 27.8401 25.252C28.1681 25.612 28.5561 25.88 29.0041 26.056C29.4521 26.232 29.9521 26.32 30.5041 26.32C31.0241 26.32 31.4721 26.26 31.8481 26.14C32.2321 26.02 32.5601 25.892 32.8321 25.756C33.1121 25.612 33.3441 25.48 33.5281 25.36C33.7201 25.24 33.8881 25.18 34.0321 25.18C34.2241 25.18 34.3721 25.252 34.4761 25.396L35.1481 26.26ZM45.7032 18.76C45.3192 18.256 44.9032 17.904 44.4552 17.704C44.0152 17.504 43.5192 17.404 42.9672 17.404C41.8952 17.404 41.0632 17.792 40.4712 18.568C39.8872 19.336 39.5952 20.46 39.5952 21.94C39.5952 22.716 39.6592 23.38 39.7872 23.932C39.9232 24.476 40.1152 24.924 40.3632 25.276C40.6192 25.62 40.9312 25.876 41.2992 26.044C41.6672 26.204 42.0832 26.284 42.5472 26.284C43.2272 26.284 43.8152 26.132 44.3112 25.828C44.8072 25.524 45.2712 25.096 45.7032 24.544V18.76ZM48.0552 10.288V28H46.6392C46.3112 28 46.1072 27.844 46.0272 27.532L45.8232 26.128C45.3032 26.744 44.7112 27.24 44.0472 27.616C43.3912 27.984 42.6312 28.168 41.7672 28.168C41.0712 28.168 40.4392 28.032 39.8712 27.76C39.3112 27.488 38.8312 27.092 38.4312 26.572C38.0312 26.044 37.7232 25.392 37.5072 24.616C37.2912 23.84 37.1832 22.948 37.1832 21.94C37.1832 21.036 37.3032 20.196 37.5432 19.42C37.7832 18.644 38.1312 17.972 38.5872 17.404C39.0432 16.836 39.5952 16.392 40.2432 16.072C40.8912 15.744 41.6232 15.58 42.4392 15.58C43.1752 15.58 43.7992 15.7 44.3112 15.94C44.8312 16.18 45.2952 16.52 45.7032 16.96V10.288H48.0552ZM53.7678 15.808V28H51.4278V15.808H53.7678ZM54.2118 12.04C54.2118 12.256 54.1678 12.464 54.0798 12.664C53.9918 12.856 53.8718 13.028 53.7198 13.18C53.5758 13.324 53.4038 13.44 53.2038 13.528C53.0038 13.608 52.7958 13.648 52.5798 13.648C52.3638 13.648 52.1598 13.608 51.9678 13.528C51.7758 13.44 51.6038 13.324 51.4518 13.18C51.3078 13.028 51.1918 12.856 51.1038 12.664C51.0238 12.464 50.9838 12.256 50.9838 12.04C50.9838 11.816 51.0238 11.608 51.1038 11.416C51.1918 11.216 51.3078 11.044 51.4518 10.9C51.6038 10.748 51.7758 10.632 51.9678 10.552C52.1598 10.464 52.3638 10.42 52.5798 10.42C52.7958 10.42 53.0038 10.464 53.2038 10.552C53.4038 10.632 53.5758 10.748 53.7198 10.9C53.8718 11.044 53.9918 11.216 54.0798 11.416C54.1678 11.608 54.2118 11.816 54.2118 12.04Z" fill="black"/>
<rect x="58" y="8" width="57" height="25" rx="12.5" fill="#04A4BC"/>
<path d="M74.4341 17.088C74.3621 17.176 74.2901 17.248 74.2181 17.304C74.1541 17.352 74.0581 17.376 73.9301 17.376C73.8021 17.376 73.6661 17.328 73.5221 17.232C73.3861 17.128 73.2101 17.02 72.9941 16.908C72.7861 16.788 72.5301 16.68 72.2261 16.584C71.9301 16.48 71.5621 16.428 71.1221 16.428C70.5461 16.428 70.0381 16.532 69.5981 16.74C69.1581 16.948 68.7901 17.244 68.4941 17.628C68.2061 18.012 67.9861 18.48 67.8341 19.032C67.6821 19.584 67.6061 20.204 67.6061 20.892C67.6061 21.604 67.6861 22.24 67.8461 22.8C68.0061 23.352 68.2341 23.82 68.5301 24.204C68.8261 24.58 69.1861 24.868 69.6101 25.068C70.0341 25.26 70.5061 25.356 71.0261 25.356C71.5301 25.356 71.9461 25.296 72.2741 25.176C72.6021 25.048 72.8741 24.912 73.0901 24.768C73.3061 24.624 73.4861 24.492 73.6301 24.372C73.7741 24.244 73.9221 24.18 74.0741 24.18C74.2661 24.18 74.4141 24.252 74.5181 24.396L75.1901 25.26C74.9101 25.604 74.5941 25.896 74.2421 26.136C73.8981 26.376 73.5301 26.572 73.1381 26.724C72.7461 26.876 72.3341 26.988 71.9021 27.06C71.4781 27.132 71.0461 27.168 70.6061 27.168C69.8461 27.168 69.1341 27.028 68.4701 26.748C67.8141 26.468 67.2421 26.06 66.7541 25.524C66.2741 24.988 65.8941 24.332 65.6141 23.556C65.3341 22.772 65.1941 21.884 65.1941 20.892C65.1941 19.988 65.3181 19.152 65.5661 18.384C65.8221 17.616 66.1941 16.956 66.6821 16.404C67.1781 15.844 67.7861 15.408 68.5061 15.096C69.2261 14.776 70.0501 14.616 70.9781 14.616C71.8501 14.616 72.6181 14.756 73.2821 15.036C73.9461 15.316 74.5381 15.712 75.0581 16.224L74.4341 17.088ZM83.9265 21.588C82.9745 21.62 82.1665 21.696 81.5025 21.816C80.8385 21.928 80.2985 22.08 79.8825 22.272C79.4665 22.464 79.1665 22.692 78.9825 22.956C78.7985 23.212 78.7065 23.5 78.7065 23.82C78.7065 24.124 78.7545 24.388 78.8505 24.612C78.9545 24.828 79.0905 25.008 79.2585 25.152C79.4345 25.288 79.6385 25.388 79.8705 25.452C80.1025 25.516 80.3545 25.548 80.6265 25.548C80.9865 25.548 81.3145 25.512 81.6105 25.44C81.9145 25.368 82.1985 25.268 82.4625 25.14C82.7265 25.004 82.9785 24.84 83.2185 24.648C83.4585 24.456 83.6945 24.236 83.9265 23.988V21.588ZM77.0625 16.512C77.7425 15.864 78.4785 15.38 79.2705 15.06C80.0705 14.74 80.9465 14.58 81.8985 14.58C82.5945 14.58 83.2105 14.696 83.7465 14.928C84.2825 15.152 84.7345 15.468 85.1025 15.876C85.4705 16.284 85.7465 16.772 85.9305 17.34C86.1225 17.908 86.2185 18.536 86.2185 19.224V27H85.1745C84.9425 27 84.7665 26.964 84.6465 26.892C84.5265 26.812 84.4305 26.668 84.3585 26.46L84.1065 25.392C83.7945 25.68 83.4865 25.936 83.1825 26.16C82.8785 26.376 82.5585 26.564 82.2225 26.724C81.8945 26.876 81.5425 26.992 81.1665 27.072C80.7905 27.152 80.3745 27.192 79.9185 27.192C79.4385 27.192 78.9865 27.128 78.5625 27C78.1465 26.864 77.7825 26.66 77.4705 26.388C77.1585 26.116 76.9105 25.776 76.7265 25.368C76.5505 24.96 76.4625 24.484 76.4625 23.94C76.4625 23.46 76.5905 23 76.8465 22.56C77.1105 22.112 77.5345 21.712 78.1185 21.36C78.7105 21.008 79.4785 20.72 80.4225 20.496C81.3745 20.272 82.5425 20.144 83.9265 20.112V19.224C83.9265 18.304 83.7305 17.616 83.3385 17.16C82.9465 16.704 82.3705 16.476 81.6105 16.476C81.0985 16.476 80.6665 16.54 80.3145 16.668C79.9705 16.796 79.6705 16.94 79.4145 17.1C79.1665 17.252 78.9465 17.392 78.7545 17.52C78.5705 17.648 78.3785 17.712 78.1785 17.712C78.0185 17.712 77.8785 17.668 77.7585 17.58C77.6465 17.492 77.5545 17.388 77.4825 17.268L77.0625 16.512ZM91.559 17.148C91.951 16.348 92.423 15.72 92.975 15.264C93.527 14.808 94.191 14.58 94.967 14.58C95.231 14.58 95.479 14.612 95.711 14.676C95.951 14.732 96.159 14.82 96.335 14.94L96.179 16.704C96.123 16.92 95.991 17.028 95.783 17.028C95.671 17.028 95.503 17.008 95.279 16.968C95.055 16.92 94.815 16.896 94.559 16.896C94.183 16.896 93.851 16.952 93.563 17.064C93.275 17.168 93.015 17.328 92.783 17.544C92.559 17.752 92.359 18.012 92.183 18.324C92.007 18.628 91.843 18.976 91.691 19.368V27H89.351V14.808H90.695C90.951 14.808 91.123 14.856 91.211 14.952C91.307 15.04 91.375 15.2 91.415 15.432L91.559 17.148ZM105.771 19.548C105.771 19.084 105.703 18.656 105.567 18.264C105.439 17.872 105.247 17.532 104.991 17.244C104.735 16.956 104.423 16.732 104.055 16.572C103.687 16.412 103.263 16.332 102.783 16.332C101.799 16.332 101.023 16.616 100.455 17.184C99.8948 17.752 99.5388 18.54 99.3868 19.548H105.771ZM107.703 25.26C107.415 25.596 107.083 25.888 106.707 26.136C106.331 26.376 105.931 26.572 105.507 26.724C105.083 26.876 104.643 26.988 104.187 27.06C103.739 27.132 103.295 27.168 102.855 27.168C102.015 27.168 101.235 27.028 100.515 26.748C99.8028 26.46 99.1828 26.044 98.6548 25.5C98.1348 24.948 97.7268 24.268 97.4308 23.46C97.1428 22.644 96.9988 21.708 96.9988 20.652C96.9988 19.804 97.1308 19.016 97.3948 18.288C97.6588 17.552 98.0348 16.912 98.5228 16.368C99.0188 15.824 99.6228 15.396 100.335 15.084C101.047 14.772 101.847 14.616 102.735 14.616C103.479 14.616 104.163 14.74 104.787 14.988C105.419 15.228 105.963 15.58 106.419 16.044C106.875 16.508 107.231 17.08 107.487 17.76C107.751 18.44 107.883 19.216 107.883 20.088C107.883 20.448 107.843 20.692 107.763 20.82C107.683 20.94 107.535 21 107.319 21H99.3268C99.3508 21.728 99.4548 22.364 99.6388 22.908C99.8228 23.444 100.075 23.892 100.395 24.252C100.723 24.612 101.111 24.88 101.559 25.056C102.007 25.232 102.507 25.32 103.059 25.32C103.579 25.32 104.027 25.26 104.403 25.14C104.787 25.02 105.115 24.892 105.387 24.756C105.667 24.612 105.899 24.48 106.083 24.36C106.275 24.24 106.443 24.18 106.587 24.18C106.779 24.18 106.927 24.252 107.031 24.396L107.703 25.26Z" fill="white"/>
</svg>
